0
SECTION
2
HEADER
9
$INSUNITS
70
4
9
$ACADVER
1
AC1014
9
$HANDSEED
5
FFFF
0
ENDSEC
0
SECTION
2
TABLES
0
TABLE
2
VPORT
5
8
100
AcDbSymbolTable
0
ENDTAB
0
TABLE
2
LTYPE
5
5
100
AcDbSymbolTable
0
LTYPE
5
14
100
AcDbSymbolTableRecord
100
AcDbLinetypeTableRecord
2
BYBLOCK
70
0
0
LTYPE
5
15
100
AcDbSymbolTableRecord
100
AcDbLinetypeTableRecord
2
BYLAYER
70
0
0
ENDTAB
0
TABLE
2
LAYER
5
2
100
AcDbSymbolTable
70
2
0
LAYER
5
50
100
AcDbSymbolTableRecord
100
AcDbLayerTableRecord
2
0
70
0
6
CONTINUOUS
0
ENDTAB
0
TABLE
2
STYLE
5
3
100
AcDbSymbolTable
70
1
0
STYLE
5
11
100
AcDbSymbolTableRecord
100
AcDbTextStyleTableRecord
2
STANDARD
70
0
0
ENDTAB
0
TABLE
2
VIEW
5
6
100
AcDbSymbolTable
70
0
0
ENDTAB
0
TABLE
2
UCS
5
7
100
AcDbSymbolTable
70
0
0
ENDTAB
0
TABLE
2
APPID
5
9
100
AcDbSymbolTable
70
2
0
APPID
5
12
100
AcDbSymbolTableRecord
100
AcDbRegAppTableRecord
2
ACAD
70
0
0
ENDTAB
0
TABLE
2
DIMSTYLE
5
A
100
AcDbSymbolTable
70
1
0
ENDTAB
0
TABLE
2
BLOCK_RECORD
5
1
100
AcDbSymbolTable
70
1
0
BLOCK_RECORD
5
1F
100
AcDbSymbolTableRecord
100
AcDbBlockTableRecord
2
*MODEL_SPACE
0
BLOCK_RECORD
5
1B
100
AcDbSymbolTableRecord
100
AcDbBlockTableRecord
2
*PAPER_SPACE
0
ENDTAB
0
ENDSEC
0
SECTION
2
BLOCKS
0
BLOCK
5
20
100
AcDbEntity
100
AcDbBlockBegin
2
*MODEL_SPACE
0
ENDBLK
5
21
100
AcDbEntity
100
AcDbBlockEnd
0
BLOCK
5
1C
100
AcDbEntity
100
AcDbBlockBegin
2
*PAPER_SPACE
0
ENDBLK
5
1D
100
AcDbEntity
100
AcDbBlockEnd
0
ENDSEC
0
SECTION
2
ENTITIES
0
LINE
5
100
100
AcDbEntity
8
0
100
AcDbLine
10
0
20
0
30
0
11
54
21
0
31
0
0
LINE
5
101
100
AcDbEntity
8
0
100
AcDbLine
10
54
20
100
30
0
11
0
21
100
31
0
0
LINE
5
102
100
AcDbEntity
8
0
100
AcDbLine
10
0
20
100
30
0
11
0
21
0
31
0
0
LINE
5
103
100
AcDbEntity
8
0
100
AcDbLine
10
54
20
100
30
0
11
67.352000000000004
21
100
31
0
0
LINE
5
104
100
AcDbEntity
8
0
100
AcDbLine
10
67.352000000000004
20
0
30
0
11
54
21
0
31
0
0
LINE
5
105
100
AcDbEntity
8
0
100
AcDbLine
10
67.352000000000004
20
100
30
0
11
127.352
21
100
31
0
0
LINE
5
106
100
AcDbEntity
8
0
100
AcDbLine
10
127.352
20
0
30
0
11
67.352000000000004
21
0
31
0
0
LINE
5
107
100
AcDbEntity
8
0
100
AcDbLine
10
127.352
20
100
30
0
11
140.70400000000001
21
100
31
0
0
LINE
5
108
100
AcDbEntity
8
0
100
AcDbLine
10
140.70400000000001
20
1.7763568394002505e-14
30
0
11
127.352
21
1.7763568394002505e-14
31
0
0
LINE
5
109
100
AcDbEntity
8
0
100
AcDbLine
10
140.70400000000001
20
100
30
0
11
248.70400000000004
21
100
31
0
0
LINE
5
110
100
AcDbEntity
8
0
100
AcDbLine
10
248.70400000000004
20
0
30
0
11
140.70400000000001
21
0
31
0
0
LINE
5
111
100
AcDbEntity
8
0
100
AcDbLine
10
248.70400000000004
20
100
30
0
11
262.05600000000004
21
100
31
0
0
LINE
5
112
100
AcDbEntity
8
0
100
AcDbLine
10
262.05600000000004
20
1.7763568394002505e-14
30
0
11
248.70400000000004
21
1.7763568394002505e-14
31
0
0
LINE
5
113
100
AcDbEntity
8
0
100
AcDbLine
10
262.05600000000004
20
100
30
0
11
322.05600000000004
21
100
31
0
0
LINE
5
114
100
AcDbEntity
8
0
100
AcDbLine
10
322.05600000000004
20
1.7763568394002505e-14
30
0
11
262.05600000000004
21
1.7763568394002505e-14
31
0
0
LINE
5
115
100
AcDbEntity
8
0
100
AcDbLine
10
322.05600000000004
20
100
30
0
11
335.40800000000002
21
100
31
0
0
LINE
5
116
100
AcDbEntity
8
0
100
AcDbLine
10
335.40800000000002
20
0
30
0
11
322.05600000000004
21
0
31
0
0
LINE
5
117
100
AcDbEntity
8
0
100
AcDbLine
10
335.40800000000002
20
100
30
0
11
389.40800000000002
21
100
31
0
0
LINE
5
118
100
AcDbEntity
8
0
100
AcDbLine
10
389.40800000000002
20
100
30
0
11
389.40800000000002
21
0
31
0
0
LINE
5
119
100
AcDbEntity
8
0
100
AcDbLine
10
389.40800000000002
20
0
30
0
11
335.40800000000002
21
0
31
0
0
LWPOLYLINE
5
120
100
AcDbEntity
8
0
100
AcDbPolyline
90
4
70
1
43
0.0
10
140.70400000000001
20
50.000000000000007
10
248.70000000000002
20
50.000000000000007
10
248.70000000000002
20
64.999999999999972
10
140.70399999999995
20
64.999999999999972
0
LWPOLYLINE
5
121
100
AcDbEntity
8
0
100
AcDbPolyline
90
6
70
1
43
0.0
10
145
20
95
10
142.5
20
90.669872981077816
10
145
20
86.339745962155632
10
150
20
86.339745962155632
10
152.5
20
90.669872981077816
10
150
20
95
0
LWPOLYLINE
5
122
100
AcDbEntity
8
0
100
AcDbPolyline
90
6
70
1
43
0.0
10
163.57142857142858
20
86.339745962155632
10
166.07142857142858
20
90.669872981077816
10
163.57142857142858
20
95
10
158.57142857142858
20
95
10
156.07142857142858
20
90.669872981077816
10
158.57142857142858
20
86.339745962155632
0
LWPOLYLINE
5
123
100
AcDbEntity
8
0
100
AcDbPolyline
90
6
70
1
43
0.0
10
177.14285714285717
20
86.339745962155632
10
179.64285714285717
20
90.669872981077816
10
177.14285714285717
20
95
10
172.14285714285717
20
95
10
169.64285714285717
20
90.669872981077816
10
172.14285714285717
20
86.339745962155632
0
LWPOLYLINE
5
124
100
AcDbEntity
8
0
100
AcDbPolyline
90
6
70
1
43
0.0
10
190.71428571428569
20
86.339745962155632
10
193.21428571428569
20
90.669872981077816
10
190.71428571428569
20
95
10
185.71428571428569
20
95
10
183.21428571428569
20
90.669872981077816
10
185.71428571428569
20
86.339745962155632
0
LWPOLYLINE
5
125
100
AcDbEntity
8
0
100
AcDbPolyline
90
6
70
1
43
0.0
10
204.28571428571431
20
86.339745962155632
10
206.78571428571431
20
90.669872981077816
10
204.28571428571431
20
95
10
199.28571428571431
20
95
10
196.78571428571431
20
90.669872981077816
10
199.28571428571431
20
86.339745962155632
0
LWPOLYLINE
5
126
100
AcDbEntity
8
0
100
AcDbPolyline
90
6
70
1
43
0.0
10
150
20
70.039745962155621
10
152.5
20
74.369872981077819
10
150
20
78.700000000000003
10
145
20
78.700000000000003
10
142.5
20
74.369872981077819
10
145
20
70.039745962155621
0
LWPOLYLINE
5
127
100
AcDbEntity
8
0
100
AcDbPolyline
90
6
70
1
43
0.0
10
163.57142857142858
20
70.039745962155621
10
166.07142857142858
20
74.369872981077819
10
163.57142857142858
20
78.700000000000003
10
158.57142857142858
20
78.700000000000003
10
156.07142857142858
20
74.369872981077819
10
158.57142857142858
20
70.039745962155621
0
LWPOLYLINE
5
128
100
AcDbEntity
8
0
100
AcDbPolyline
90
6
70
1
43
0.0
10
177.14285714285717
20
70.039745962155621
10
179.64285714285717
20
74.369872981077819
10
177.14285714285717
20
78.700000000000003
10
172.14285714285717
20
78.700000000000003
10
169.64285714285717
20
74.369872981077819
10
172.14285714285717
20
70.039745962155621
0
LWPOLYLINE
5
129
100
AcDbEntity
8
0
100
AcDbPolyline
90
6
70
1
43
0.0
10
190.71428571428569
20
70.039745962155621
10
193.21428571428569
20
74.369872981077819
10
190.71428571428569
20
78.700000000000003
10
185.71428571428569
20
78.700000000000003
10
183.21428571428569
20
74.369872981077819
10
185.71428571428569
20
70.039745962155621
0
LWPOLYLINE
5
130
100
AcDbEntity
8
0
100
AcDbPolyline
90
6
70
1
43
0.0
10
204.28571428571431
20
70.039745962155621
10
206.78571428571431
20
74.369872981077819
10
204.28571428571431
20
78.700000000000003
10
199.28571428571431
20
78.700000000000003
10
196.78571428571431
20
74.369872981077819
10
199.28571428571431
20
70.039745962155621
0
LWPOLYLINE
5
131
100
AcDbEntity
8
0
100
AcDbPolyline
90
6
70
1
43
0.0
10
150
20
21.139745962155622
10
152.5
20
25.469872981077806
10
150
20
29.799999999999997
10
145
20
29.799999999999997
10
142.5
20
25.469872981077806
10
145
20
21.139745962155622
0
LWPOLYLINE
5
132
100
AcDbEntity
8
0
100
AcDbPolyline
90
6
70
1
43
0.0
10
163.57142857142858
20
21.139745962155622
10
166.07142857142858
20
25.469872981077806
10
163.57142857142858
20
29.799999999999997
10
158.57142857142858
20
29.799999999999997
10
156.07142857142858
20
25.469872981077806
10
158.57142857142858
20
21.139745962155622
0
LWPOLYLINE
5
133
100
AcDbEntity
8
0
100
AcDbPolyline
90
6
70
1
43
0.0
10
177.14285714285717
20
21.139745962155622
10
179.64285714285717
20
25.469872981077806
10
177.14285714285717
20
29.799999999999997
10
172.14285714285717
20
29.799999999999997
10
169.64285714285717
20
25.469872981077806
10
172.14285714285717
20
21.139745962155622
0
LWPOLYLINE
5
134
100
AcDbEntity
8
0
100
AcDbPolyline
90
6
70
1
43
0.0
10
190.71428571428569
20
21.139745962155622
10
193.21428571428569
20
25.469872981077806
10
190.71428571428569
20
29.799999999999997
10
185.71428571428569
20
29.799999999999997
10
183.21428571428569
20
25.469872981077806
10
185.71428571428569
20
21.139745962155622
0
LWPOLYLINE
5
135
100
AcDbEntity
8
0
100
AcDbPolyline
90
6
70
1
43
0.0
10
204.28571428571431
20
21.139745962155622
10
206.78571428571431
20
25.469872981077806
10
204.28571428571431
20
29.799999999999997
10
199.28571428571431
20
29.799999999999997
10
196.78571428571431
20
25.469872981077806
10
199.28571428571431
20
21.139745962155622
0
LWPOLYLINE
5
136
100
AcDbEntity
8
0
100
AcDbPolyline
90
6
70
1
43
0.0
10
150
20
4.8397459621556216
10
152.5
20
9.169872981077809
10
150
20
13.499999999999996
10
145
20
13.499999999999996
10
142.5
20
9.169872981077809
10
145
20
4.8397459621556216
0
LWPOLYLINE
5
137
100
AcDbEntity
8
0
100
AcDbPolyline
90
6
70
1
43
0.0
10
163.57142857142858
20
4.8397459621556216
10
166.07142857142858
20
9.169872981077809
10
163.57142857142858
20
13.499999999999996
10
158.57142857142858
20
13.499999999999996
10
156.07142857142858
20
9.169872981077809
10
158.57142857142858
20
4.8397459621556216
0
LWPOLYLINE
5
138
100
AcDbEntity
8
0
100
AcDbPolyline
90
6
70
1
43
0.0
10
177.14285714285717
20
4.8397459621556216
10
179.64285714285717
20
9.169872981077809
10
177.14285714285717
20
13.499999999999996
10
172.14285714285717
20
13.499999999999996
10
169.64285714285717
20
9.169872981077809
10
172.14285714285717
20
4.8397459621556216
0
LWPOLYLINE
5
139
100
AcDbEntity
8
0
100
AcDbPolyline
90
6
70
1
43
0.0
10
190.71428571428569
20
4.8397459621556216
10
193.21428571428569
20
9.169872981077809
10
190.71428571428569
20
13.499999999999996
10
185.71428571428569
20
13.499999999999996
10
183.21428571428569
20
9.169872981077809
10
185.71428571428569
20
4.8397459621556216
0
LWPOLYLINE
5
140
100
AcDbEntity
8
0
100
AcDbPolyline
90
6
70
1
43
0.0
10
204.28571428571431
20
4.8397459621556216
10
206.78571428571431
20
9.169872981077809
10
204.28571428571431
20
13.499999999999996
10
199.28571428571431
20
13.499999999999996
10
196.78571428571431
20
9.169872981077809
10
199.28571428571431
20
4.8397459621556216
0
LWPOLYLINE
5
141
100
AcDbEntity
8
0
100
AcDbPolyline
90
6
70
1
43
0.0
10
217.85714285714283
20
86.339745962155632
10
220.35714285714283
20
90.669872981077816
10
217.85714285714283
20
95
10
212.85714285714283
20
95
10
210.35714285714283
20
90.669872981077816
10
212.85714285714283
20
86.339745962155632
0
LWPOLYLINE
5
142
100
AcDbEntity
8
0
100
AcDbPolyline
90
6
70
1
43
0.0
10
231.42857142857142
20
86.339745962155632
10
233.92857142857142
20
90.669872981077816
10
231.42857142857142
20
95
10
226.42857142857142
20
95
10
223.92857142857142
20
90.669872981077816
10
226.42857142857142
20
86.339745962155632
0
LWPOLYLINE
5
143
100
AcDbEntity
8
0
100
AcDbPolyline
90
6
70
1
43
0.0
10
245
20
86.339745962155632
10
247.5
20
90.669872981077816
10
245
20
95
10
240
20
95
10
237.5
20
90.669872981077816
10
240
20
86.339745962155632
0
LWPOLYLINE
5
144
100
AcDbEntity
8
0
100
AcDbPolyline
90
6
70
1
43
0.0
10
217.85714285714283
20
70.039745962155621
10
220.35714285714283
20
74.369872981077819
10
217.85714285714283
20
78.700000000000003
10
212.85714285714283
20
78.700000000000003
10
210.35714285714283
20
74.369872981077819
10
212.85714285714283
20
70.039745962155621
0
LWPOLYLINE
5
145
100
AcDbEntity
8
0
100
AcDbPolyline
90
6
70
1
43
0.0
10
231.42857142857142
20
70.039745962155621
10
233.92857142857142
20
74.369872981077819
10
231.42857142857142
20
78.700000000000003
10
226.42857142857142
20
78.700000000000003
10
223.92857142857142
20
74.369872981077819
10
226.42857142857142
20
70.039745962155621
0
LWPOLYLINE
5
146
100
AcDbEntity
8
0
100
AcDbPolyline
90
6
70
1
43
0.0
10
245
20
70.039745962155621
10
247.5
20
74.369872981077819
10
245
20
78.700000000000003
10
240
20
78.700000000000003
10
237.5
20
74.369872981077819
10
240
20
70.039745962155621
0
LWPOLYLINE
5
147
100
AcDbEntity
8
0
100
AcDbPolyline
90
6
70
1
43
0.0
10
217.85714285714283
20
21.139745962155622
10
220.35714285714283
20
25.469872981077806
10
217.85714285714283
20
29.799999999999997
10
212.85714285714283
20
29.799999999999997
10
210.35714285714283
20
25.469872981077806
10
212.85714285714283
20
21.139745962155622
0
LWPOLYLINE
5
148
100
AcDbEntity
8
0
100
AcDbPolyline
90
6
70
1
43
0.0
10
231.42857142857142
20
21.139745962155622
10
233.92857142857142
20
25.469872981077806
10
231.42857142857142
20
29.799999999999997
10
226.42857142857142
20
29.799999999999997
10
223.92857142857142
20
25.469872981077806
10
226.42857142857142
20
21.139745962155622
0
LWPOLYLINE
5
149
100
AcDbEntity
8
0
100
AcDbPolyline
90
6
70
1
43
0.0
10
245
20
21.139745962155622
10
247.5
20
25.469872981077806
10
245
20
29.799999999999997
10
240
20
29.799999999999997
10
237.5
20
25.469872981077806
10
240
20
21.139745962155622
0
LWPOLYLINE
5
150
100
AcDbEntity
8
0
100
AcDbPolyline
90
6
70
1
43
0.0
10
217.85714285714283
20
4.8397459621556216
10
220.35714285714283
20
9.169872981077809
10
217.85714285714283
20
13.499999999999996
10
212.85714285714283
20
13.499999999999996
10
210.35714285714283
20
9.169872981077809
10
212.85714285714283
20
4.8397459621556216
0
LWPOLYLINE
5
151
100
AcDbEntity
8
0
100
AcDbPolyline
90
6
70
1
43
0.0
10
231.42857142857142
20
4.8397459621556216
10
233.92857142857142
20
9.169872981077809
10
231.42857142857142
20
13.499999999999996
10
226.42857142857142
20
13.499999999999996
10
223.92857142857142
20
9.169872981077809
10
226.42857142857142
20
4.8397459621556216
0
LWPOLYLINE
5
152
100
AcDbEntity
8
0
100
AcDbPolyline
90
6
70
1
43
0.0
10
245
20
4.8397459621556216
10
247.5
20
9.169872981077809
10
245
20
13.499999999999996
10
240
20
13.499999999999996
10
237.5
20
9.169872981077809
10
240
20
4.8397459621556216
0
LWPOLYLINE
5
153
100
AcDbEntity
8
0
100
AcDbPolyline
90
6
70
1
43
0.0
10
245
20
78.700000000000003
10
240
20
78.700000000000003
10
237.5
20
74.369872981077819
10
240
20
70.039745962155621
10
245
20
70.039745962155621
10
247.5
20
74.369872981077819
0
LWPOLYLINE
5
154
100
AcDbEntity
8
0
100
AcDbPolyline
90
6
70
1
43
0.0
10
247.5
20
90.669872981077816
10
245
20
95
10
240
20
95
10
237.5
20
90.669872981077816
10
240
20
86.339745962155632
10
245
20
86.339745962155632
0
LWPOLYLINE
5
155
100
AcDbEntity
8
0
100
AcDbPolyline
90
6
70
1
43
0.0
10
247.5
20
58.069872981077815
10
245
20
62.400000000000006
10
240
20
62.400000000000006
10
237.5
20
58.069872981077815
10
240
20
53.739745962155624
10
245
20
53.739745962155624
0
LWPOLYLINE
5
156
100
AcDbEntity
8
0
100
AcDbPolyline
90
6
70
1
43
0.0
10
245
20
37.439745962155627
10
247.5
20
41.769872981077818
10
245
20
46.100000000000001
10
240
20
46.100000000000001
10
237.5
20
41.769872981077818
10
240
20
37.439745962155627
0
LWPOLYLINE
5
157
100
AcDbEntity
8
0
100
AcDbPolyline
90
6
70
1
43
0.0
10
245
20
62.400000000000006
10
240
20
62.400000000000006
10
237.5
20
58.069872981077815
10
240
20
53.739745962155624
10
245
20
53.739745962155624
10
247.5
20
58.069872981077815
0
LWPOLYLINE
5
158
100
AcDbEntity
8
0
100
AcDbPolyline
90
6
70
1
43
0.0
10
247.5
20
41.769872981077818
10
245
20
46.100000000000001
10
240
20
46.100000000000001
10
237.5
20
41.769872981077818
10
240
20
37.439745962155627
10
245
20
37.439745962155627
0
LWPOLYLINE
5
159
100
AcDbEntity
8
0
100
AcDbPolyline
90
6
70
1
43
0.0
10
145
20
62.399999999999991
10
142.5
20
58.069872981077808
10
145
20
53.739745962155617
10
150
20
53.739745962155617
10
152.5
20
58.069872981077808
10
150
20
62.399999999999991
0
LWPOLYLINE
5
160
100
AcDbEntity
8
0
100
AcDbPolyline
90
6
70
1
43
0.0
10
150
20
37.439745962155619
10
152.5
20
41.76987298107781
10
150
20
46.099999999999994
10
145
20
46.099999999999994
10
142.5
20
41.76987298107781
10
145
20
37.439745962155619
0
LWPOLYLINE
5
161
100
AcDbEntity
8
0
100
AcDbPolyline
90
6
70
1
43
0.0
10
347.20399999999995
20
90.669872981077816
10
344.70399999999995
20
95
10
339.70399999999995
20
95
10
337.20399999999995
20
90.669872981077816
10
339.70399999999995
20
86.339745962155632
10
344.70399999999995
20
86.339745962155632
0
LWPOLYLINE
5
162
100
AcDbEntity
8
0
100
AcDbPolyline
90
6
70
1
43
0.0
10
360.77542857142851
20
90.669872981077816
10
358.27542857142851
20
95
10
353.27542857142851
20
95
10
350.77542857142851
20
90.669872981077816
10
353.27542857142851
20
86.339745962155632
10
358.27542857142851
20
86.339745962155632
0
LWPOLYLINE
5
163
100
AcDbEntity
8
0
100
AcDbPolyline
90
6
70
1
43
0.0
10
374.34685714285712
20
90.669872981077816
10
371.84685714285712
20
95
10
366.84685714285712
20
95
10
364.34685714285712
20
90.669872981077816
10
366.84685714285712
20
86.339745962155632
10
371.84685714285712
20
86.339745962155632
0
LWPOLYLINE
5
164
100
AcDbEntity
8
0
100
AcDbPolyline
90
6
70
1
43
0.0
10
387.91828571428567
20
90.669872981077816
10
385.41828571428567
20
95
10
380.41828571428567
20
95
10
377.91828571428567
20
90.669872981077816
10
380.41828571428567
20
86.339745962155632
10
385.41828571428567
20
86.339745962155632
0
LWPOLYLINE
5
165
100
AcDbEntity
8
0
100
AcDbPolyline
90
6
70
1
43
0.0
10
347.20399999999995
20
74.369872981077819
10
344.70399999999995
20
78.700000000000003
10
339.70399999999995
20
78.700000000000003
10
337.20399999999995
20
74.369872981077819
10
339.70399999999995
20
70.039745962155621
10
344.70399999999995
20
70.039745962155621
0
LWPOLYLINE
5
166
100
AcDbEntity
8
0
100
AcDbPolyline
90
6
70
1
43
0.0
10
360.77542857142851
20
74.369872981077819
10
358.27542857142851
20
78.700000000000003
10
353.27542857142851
20
78.700000000000003
10
350.77542857142851
20
74.369872981077819
10
353.27542857142851
20
70.039745962155621
10
358.27542857142851
20
70.039745962155621
0
LWPOLYLINE
5
167
100
AcDbEntity
8
0
100
AcDbPolyline
90
6
70
1
43
0.0
10
374.34685714285712
20
74.369872981077819
10
371.84685714285712
20
78.700000000000003
10
366.84685714285712
20
78.700000000000003
10
364.34685714285712
20
74.369872981077819
10
366.84685714285712
20
70.039745962155621
10
371.84685714285712
20
70.039745962155621
0
LWPOLYLINE
5
168
100
AcDbEntity
8
0
100
AcDbPolyline
90
6
70
1
43
0.0
10
387.91828571428567
20
74.369872981077819
10
385.41828571428567
20
78.700000000000003
10
380.41828571428567
20
78.700000000000003
10
377.91828571428567
20
74.369872981077819
10
380.41828571428567
20
70.039745962155621
10
385.41828571428567
20
70.039745962155621
0
LWPOLYLINE
5
169
100
AcDbEntity
8
0
100
AcDbPolyline
90
6
70
1
43
0.0
10
347.20399999999995
20
58.069872981077815
10
344.70399999999995
20
62.400000000000006
10
339.70399999999995
20
62.400000000000006
10
337.20399999999995
20
58.069872981077815
10
339.70399999999995
20
53.739745962155624
10
344.70399999999995
20
53.739745962155624
0
LWPOLYLINE
5
170
100
AcDbEntity
8
0
100
AcDbPolyline
90
6
70
1
43
0.0
10
360.77542857142851
20
58.069872981077815
10
358.27542857142851
20
62.400000000000006
10
353.27542857142851
20
62.400000000000006
10
350.77542857142851
20
58.069872981077815
10
353.27542857142851
20
53.739745962155624
10
358.27542857142851
20
53.739745962155624
0
LWPOLYLINE
5
171
100
AcDbEntity
8
0
100
AcDbPolyline
90
6
70
1
43
0.0
10
374.34685714285712
20
58.069872981077815
10
371.84685714285712
20
62.400000000000006
10
366.84685714285712
20
62.400000000000006
10
364.34685714285712
20
58.069872981077815
10
366.84685714285712
20
53.739745962155624
10
371.84685714285712
20
53.739745962155624
0
LWPOLYLINE
5
172
100
AcDbEntity
8
0
100
AcDbPolyline
90
6
70
1
43
0.0
10
387.91828571428567
20
58.069872981077815
10
385.41828571428567
20
62.400000000000006
10
380.41828571428567
20
62.400000000000006
10
377.91828571428567
20
58.069872981077815
10
380.41828571428567
20
53.739745962155624
10
385.41828571428567
20
53.739745962155624
0
LWPOLYLINE
5
173
100
AcDbEntity
8
0
100
AcDbPolyline
90
6
70
1
43
0.0
10
347.20399999999995
20
41.76987298107781
10
344.70399999999995
20
46.099999999999994
10
339.70399999999995
20
46.099999999999994
10
337.20399999999995
20
41.76987298107781
10
339.70399999999995
20
37.439745962155619
10
344.70399999999995
20
37.439745962155619
0
LWPOLYLINE
5
174
100
AcDbEntity
8
0
100
AcDbPolyline
90
6
70
1
43
0.0
10
360.77542857142851
20
41.76987298107781
10
358.27542857142851
20
46.099999999999994
10
353.27542857142851
20
46.099999999999994
10
350.77542857142851
20
41.76987298107781
10
353.27542857142851
20
37.439745962155619
10
358.27542857142851
20
37.439745962155619
0
LWPOLYLINE
5
175
100
AcDbEntity
8
0
100
AcDbPolyline
90
6
70
1
43
0.0
10
374.34685714285712
20
41.76987298107781
10
371.84685714285712
20
46.099999999999994
10
366.84685714285712
20
46.099999999999994
10
364.34685714285712
20
41.76987298107781
10
366.84685714285712
20
37.439745962155619
10
371.84685714285712
20
37.439745962155619
0
LWPOLYLINE
5
176
100
AcDbEntity
8
0
100
AcDbPolyline
90
6
70
1
43
0.0
10
387.91828571428567
20
41.76987298107781
10
385.41828571428567
20
46.099999999999994
10
380.41828571428567
20
46.099999999999994
10
377.91828571428567
20
41.76987298107781
10
380.41828571428567
20
37.439745962155619
10
385.41828571428567
20
37.439745962155619
0
LWPOLYLINE
5
177
100
AcDbEntity
8
0
100
AcDbPolyline
90
6
70
1
43
0.0
10
347.20399999999995
20
25.469872981077806
10
344.70399999999995
20
29.799999999999997
10
339.70399999999995
20
29.799999999999997
10
337.20399999999995
20
25.469872981077806
10
339.70399999999995
20
21.139745962155622
10
344.70399999999995
20
21.139745962155622
0
LWPOLYLINE
5
178
100
AcDbEntity
8
0
100
AcDbPolyline
90
6
70
1
43
0.0
10
360.77542857142851
20
25.469872981077806
10
358.27542857142851
20
29.799999999999997
10
353.27542857142851
20
29.799999999999997
10
350.77542857142851
20
25.469872981077806
10
353.27542857142851
20
21.139745962155622
10
358.27542857142851
20
21.139745962155622
0
LWPOLYLINE
5
179
100
AcDbEntity
8
0
100
AcDbPolyline
90
6
70
1
43
0.0
10
374.34685714285712
20
25.469872981077806
10
371.84685714285712
20
29.799999999999997
10
366.84685714285712
20
29.799999999999997
10
364.34685714285712
20
25.469872981077806
10
366.84685714285712
20
21.139745962155622
10
371.84685714285712
20
21.139745962155622
0
LWPOLYLINE
5
180
100
AcDbEntity
8
0
100
AcDbPolyline
90
6
70
1
43
0.0
10
387.91828571428567
20
25.469872981077806
10
385.41828571428567
20
29.799999999999997
10
380.41828571428567
20
29.799999999999997
10
377.91828571428567
20
25.469872981077806
10
380.41828571428567
20
21.139745962155622
10
385.41828571428567
20
21.139745962155622
0
LWPOLYLINE
5
181
100
AcDbEntity
8
0
100
AcDbPolyline
90
6
70
1
43
0.0
10
347.20399999999995
20
9.169872981077809
10
344.70399999999995
20
13.499999999999996
10
339.70399999999995
20
13.499999999999996
10
337.20399999999995
20
9.169872981077809
10
339.70399999999995
20
4.8397459621556216
10
344.70399999999995
20
4.8397459621556216
0
LWPOLYLINE
5
182
100
AcDbEntity
8
0
100
AcDbPolyline
90
6
70
1
43
0.0
10
360.77542857142851
20
9.169872981077809
10
358.27542857142851
20
13.499999999999996
10
353.27542857142851
20
13.499999999999996
10
350.77542857142851
20
9.169872981077809
10
353.27542857142851
20
4.8397459621556216
10
358.27542857142851
20
4.8397459621556216
0
LWPOLYLINE
5
183
100
AcDbEntity
8
0
100
AcDbPolyline
90
6
70
1
43
0.0
10
374.34685714285712
20
9.169872981077809
10
371.84685714285712
20
13.499999999999996
10
366.84685714285712
20
13.499999999999996
10
364.34685714285712
20
9.169872981077809
10
366.84685714285712
20
4.8397459621556216
10
371.84685714285712
20
4.8397459621556216
0
LWPOLYLINE
5
184
100
AcDbEntity
8
0
100
AcDbPolyline
90
6
70
1
43
0.0
10
387.91828571428567
20
9.169872981077809
10
385.41828571428567
20
13.499999999999996
10
380.41828571428567
20
13.499999999999996
10
377.91828571428567
20
9.169872981077809
10
380.41828571428567
20
4.8397459621556216
10
385.41828571428567
20
4.8397459621556216
0
LWPOLYLINE
5
185
100
AcDbEntity
8
0
100
AcDbPolyline
90
6
70
1
43
0.0
10
44.703999999999979
20
21.139745962155622
10
49.703999999999979
20
21.139745962155622
10
52.203999999999979
20
25.469872981077806
10
49.703999999999979
20
29.799999999999997
10
44.703999999999979
20
29.799999999999997
10
42.203999999999979
20
25.469872981077806
0
LWPOLYLINE
5
186
100
AcDbEntity
8
0
100
AcDbPolyline
90
6
70
1
43
0.0
10
31.132571428571367
20
13.499999999999996
10
28.632571428571367
20
9.169872981077809
10
31.132571428571367
20
4.8397459621556216
10
36.132571428571367
20
4.8397459621556216
10
38.632571428571367
20
9.169872981077809
10
36.132571428571367
20
13.499999999999996
0
LWPOLYLINE
5
187
100
AcDbEntity
8
0
100
AcDbPolyline
90
6
70
1
43
0.0
10
42.203999999999979
20
90.669872981077816
10
44.703999999999979
20
86.339745962155632
10
49.703999999999979
20
86.339745962155632
10
52.203999999999979
20
90.669872981077816
10
49.703999999999979
20
95
10
44.703999999999979
20
95
0
LWPOLYLINE
5
188
100
AcDbEntity
8
0
100
AcDbPolyline
90
6
70
1
43
0.0
10
1.4897142857142853
20
74.369872981077819
10
3.9897142857142853
20
70.039745962155621
10
8.9897142857142853
20
70.039745962155621
10
11.489714285714285
20
74.369872981077819
10
8.9897142857142853
20
78.700000000000003
10
3.9897142857142853
20
78.700000000000003
0
LWPOLYLINE
5
189
100
AcDbEntity
8
0
100
AcDbPolyline
90
6
70
1
43
0.0
10
38.632571428571367
20
58.069872981077815
10
36.132571428571367
20
62.400000000000006
10
31.132571428571367
20
62.400000000000006
10
28.632571428571367
20
58.069872981077815
10
31.132571428571367
20
53.739745962155624
10
36.132571428571367
20
53.739745962155624
0
LWPOLYLINE
5
190
100
AcDbEntity
8
0
100
AcDbPolyline
90
6
70
1
43
0.0
10
49.703999999999979
20
70.039745962155621
10
52.203999999999979
20
74.369872981077819
10
49.703999999999979
20
78.700000000000003
10
44.703999999999979
20
78.700000000000003
10
42.203999999999979
20
74.369872981077819
10
44.703999999999979
20
70.039745962155621
0
LWPOLYLINE
5
191
100
AcDbEntity
8
0
100
AcDbPolyline
90
6
70
1
43
0.0
10
28.632571428571367
20
74.369872981077819
10
31.132571428571367
20
70.039745962155621
10
36.132571428571367
20
70.039745962155621
10
38.632571428571367
20
74.369872981077819
10
36.132571428571367
20
78.700000000000003
10
31.132571428571367
20
78.700000000000003
0
LWPOLYLINE
5
192
100
AcDbEntity
8
0
100
AcDbPolyline
90
6
70
1
43
0.0
10
36.132571428571367
20
37.439745962155619
10
38.632571428571367
20
41.76987298107781
10
36.132571428571367
20
46.099999999999994
10
31.132571428571367
20
46.099999999999994
10
28.632571428571367
20
41.76987298107781
10
31.132571428571367
20
37.439745962155619
0
LWPOLYLINE
5
193
100
AcDbEntity
8
0
100
AcDbPolyline
90
6
70
1
43
0.0
10
22.561142857142826
20
53.739745962155624
10
25.061142857142826
20
58.069872981077815
10
22.561142857142826
20
62.400000000000006
10
17.561142857142826
20
62.400000000000006
10
15.061142857142826
20
58.069872981077815
10
17.561142857142826
20
53.739745962155624
0
LWPOLYLINE
5
194
100
AcDbEntity
8
0
100
AcDbPolyline
90
6
70
1
43
0.0
10
25.061142857142826
20
25.469872981077806
10
22.561142857142826
20
29.799999999999997
10
17.561142857142826
20
29.799999999999997
10
15.061142857142826
20
25.469872981077806
10
17.561142857142826
20
21.139745962155622
10
22.561142857142826
20
21.139745962155622
0
LWPOLYLINE
5
195
100
AcDbEntity
8
0
100
AcDbPolyline
90
6
70
1
43
0.0
10
42.203999999999979
20
41.76987298107781
10
44.703999999999979
20
37.439745962155619
10
49.703999999999979
20
37.439745962155619
10
52.203999999999979
20
41.76987298107781
10
49.703999999999979
20
46.099999999999994
10
44.703999999999979
20
46.099999999999994
0
LWPOLYLINE
5
196
100
AcDbEntity
8
0
100
AcDbPolyline
90
6
70
1
43
0.0
10
22.561142857142826
20
46.099999999999994
10
17.561142857142826
20
46.099999999999994
10
15.061142857142826
20
41.76987298107781
10
17.561142857142826
20
37.439745962155619
10
22.561142857142826
20
37.439745962155619
10
25.061142857142826
20
41.76987298107781
0
LWPOLYLINE
5
197
100
AcDbEntity
8
0
100
AcDbPolyline
90
6
70
1
43
0.0
10
11.489714285714285
20
25.469872981077806
10
8.9897142857142853
20
29.799999999999997
10
3.9897142857142853
20
29.799999999999997
10
1.4897142857142853
20
25.469872981077806
10
3.9897142857142853
20
21.139745962155622
10
8.9897142857142853
20
21.139745962155622
0
LWPOLYLINE
5
198
100
AcDbEntity
8
0
100
AcDbPolyline
90
6
70
1
43
0.0
10
38.632571428571367
20
25.469872981077806
10
36.132571428571367
20
29.799999999999997
10
31.132571428571367
20
29.799999999999997
10
28.632571428571367
20
25.469872981077806
10
31.132571428571367
20
21.139745962155622
10
36.132571428571367
20
21.139745962155622
0
LWPOLYLINE
5
199
100
AcDbEntity
8
0
100
AcDbPolyline
90
6
70
1
43
0.0
10
52.203999999999979
20
58.069872981077815
10
49.703999999999979
20
62.400000000000006
10
44.703999999999979
20
62.400000000000006
10
42.203999999999979
20
58.069872981077815
10
44.703999999999979
20
53.739745962155624
10
49.703999999999979
20
53.739745962155624
0
LWPOLYLINE
5
200
100
AcDbEntity
8
0
100
AcDbPolyline
90
6
70
1
43
0.0
10
17.561142857142826
20
70.039745962155621
10
22.561142857142826
20
70.039745962155621
10
25.061142857142826
20
74.369872981077819
10
22.561142857142826
20
78.700000000000003
10
17.561142857142826
20
78.700000000000003
10
15.061142857142826
20
74.369872981077819
0
LWPOLYLINE
5
201
100
AcDbEntity
8
0
100
AcDbPolyline
90
6
70
1
43
0.0
10
11.489714285714285
20
58.069872981077815
10
8.9897142857142853
20
62.400000000000006
10
3.9897142857142853
20
62.400000000000006
10
1.4897142857142853
20
58.069872981077815
10
3.9897142857142853
20
53.739745962155624
10
8.9897142857142853
20
53.739745962155624
0
LWPOLYLINE
5
202
100
AcDbEntity
8
0
100
AcDbPolyline
90
6
70
1
43
0.0
10
11.489714285714285
20
41.76987298107781
10
8.9897142857142853
20
46.099999999999994
10
3.9897142857142853
20
46.099999999999994
10
1.4897142857142853
20
41.76987298107781
10
3.9897142857142853
20
37.439745962155619
10
8.9897142857142853
20
37.439745962155619
0
LWPOLYLINE
5
203
100
AcDbEntity
8
0
100
AcDbPolyline
90
6
70
1
43
0.0
10
22.561142857142826
20
95
10
17.561142857142826
20
95
10
15.061142857142826
20
90.669872981077816
10
17.561142857142826
20
86.339745962155632
10
22.561142857142826
20
86.339745962155632
10
25.061142857142826
20
90.669872981077816
0
LWPOLYLINE
5
204
100
AcDbEntity
8
0
100
AcDbPolyline
90
6
70
1
43
0.0
10
3.9897142857142853
20
86.339745962155632
10
8.9897142857142853
20
86.339745962155632
10
11.489714285714285
20
90.669872981077816
10
8.9897142857142853
20
95
10
3.9897142857142853
20
95
10
1.4897142857142853
20
90.669872981077816
0
LWPOLYLINE
5
205
100
AcDbEntity
8
0
100
AcDbPolyline
90
6
70
1
43
0.0
10
17.561142857142826
20
13.499999999999996
10
15.061142857142826
20
9.169872981077809
10
17.561142857142826
20
4.8397459621556216
10
22.561142857142826
20
4.8397459621556216
10
25.061142857142826
20
9.169872981077809
10
22.561142857142826
20
13.499999999999996
0
LWPOLYLINE
5
206
100
AcDbEntity
8
0
100
AcDbPolyline
90
6
70
1
43
0.0
10
1.4897142857142853
20
9.169872981077809
10
3.9897142857142853
20
4.8397459621556216
10
8.9897142857142853
20
4.8397459621556216
10
11.489714285714285
20
9.169872981077809
10
8.9897142857142853
20
13.499999999999996
10
3.9897142857142853
20
13.499999999999996
0
LWPOLYLINE
5
207
100
AcDbEntity
8
0
100
AcDbPolyline
90
6
70
1
43
0.0
10
49.703999999999979
20
13.499999999999996
10
44.703999999999979
20
13.499999999999996
10
42.203999999999979
20
9.169872981077809
10
44.703999999999979
20
4.8397459621556216
10
49.703999999999979
20
4.8397459621556216
10
52.203999999999979
20
9.169872981077809
0
LWPOLYLINE
5
208
100
AcDbEntity
8
0
100
AcDbPolyline
90
6
70
1
43
0.0
10
36.132571428571367
20
86.339745962155632
10
38.632571428571367
20
90.669872981077816
10
36.132571428571367
20
95
10
31.132571428571367
20
95
10
28.632571428571367
20
90.669872981077816
10
31.132571428571367
20
86.339745962155632
0
LWPOLYLINE
5
209
100
AcDbEntity
8
0
100
AcDbPolyline
90
6
70
1
43
0.0
10
266
20
95
10
263.5
20
90.669872981077816
10
266
20
86.339745962155632
10
271
20
86.339745962155632
10
273.5
20
90.669872981077816
10
271
20
95
0
LWPOLYLINE
5
210
100
AcDbEntity
8
0
100
AcDbPolyline
90
6
70
1
43
0.0
10
281.66666666666669
20
95
10
279.16666666666669
20
90.669872981077816
10
281.66666666666669
20
86.339745962155632
10
286.66666666666669
20
86.339745962155632
10
289.16666666666669
20
90.669872981077816
10
286.66666666666669
20
95
0
LWPOLYLINE
5
211
100
AcDbEntity
8
0
100
AcDbPolyline
90
6
70
1
43
0.0
10
297.33333333333337
20
95
10
294.83333333333337
20
90.669872981077816
10
297.33333333333337
20
86.339745962155632
10
302.33333333333337
20
86.339745962155632
10
304.83333333333337
20
90.669872981077816
10
302.33333333333337
20
95
0
LWPOLYLINE
5
212
100
AcDbEntity
8
0
100
AcDbPolyline
90
6
70
1
43
0.0
10
313
20
95
10
310.5
20
90.669872981077816
10
313
20
86.339745962155632
10
318
20
86.339745962155632
10
320.50000000000006
20
90.669872981077816
10
318
20
95
0
LWPOLYLINE
5
213
100
AcDbEntity
8
0
100
AcDbPolyline
90
6
70
1
43
0.0
10
266
20
78.700000000000003
10
263.5
20
74.369872981077819
10
266
20
70.039745962155621
10
271
20
70.039745962155621
10
273.5
20
74.369872981077819
10
271
20
78.700000000000003
0
LWPOLYLINE
5
214
100
AcDbEntity
8
0
100
AcDbPolyline
90
6
70
1
43
0.0
10
281.66666666666669
20
78.700000000000003
10
279.16666666666669
20
74.369872981077819
10
281.66666666666669
20
70.039745962155621
10
286.66666666666669
20
70.039745962155621
10
289.16666666666669
20
74.369872981077819
10
286.66666666666669
20
78.700000000000003
0
LWPOLYLINE
5
215
100
AcDbEntity
8
0
100
AcDbPolyline
90
6
70
1
43
0.0
10
297.33333333333337
20
78.700000000000003
10
294.83333333333337
20
74.369872981077819
10
297.33333333333337
20
70.039745962155621
10
302.33333333333337
20
70.039745962155621
10
304.83333333333337
20
74.369872981077819
10
302.33333333333337
20
78.700000000000003
0
LWPOLYLINE
5
216
100
AcDbEntity
8
0
100
AcDbPolyline
90
6
70
1
43
0.0
10
313
20
78.700000000000003
10
310.5
20
74.369872981077819
10
313
20
70.039745962155621
10
318
20
70.039745962155621
10
320.50000000000006
20
74.369872981077819
10
318
20
78.700000000000003
0
LWPOLYLINE
5
217
100
AcDbEntity
8
0
100
AcDbPolyline
90
6
70
1
43
0.0
10
266
20
62.400000000000006
10
263.5
20
58.069872981077815
10
266
20
53.739745962155624
10
271
20
53.739745962155624
10
273.5
20
58.069872981077815
10
271
20
62.400000000000006
0
LWPOLYLINE
5
218
100
AcDbEntity
8
0
100
AcDbPolyline
90
6
70
1
43
0.0
10
281.66666666666669
20
62.400000000000006
10
279.16666666666669
20
58.069872981077815
10
281.66666666666669
20
53.739745962155624
10
286.66666666666669
20
53.739745962155624
10
289.16666666666669
20
58.069872981077815
10
286.66666666666669
20
62.400000000000006
0
LWPOLYLINE
5
219
100
AcDbEntity
8
0
100
AcDbPolyline
90
6
70
1
43
0.0
10
297.33333333333337
20
62.400000000000006
10
294.83333333333337
20
58.069872981077815
10
297.33333333333337
20
53.739745962155624
10
302.33333333333337
20
53.739745962155624
10
304.83333333333337
20
58.069872981077815
10
302.33333333333337
20
62.400000000000006
0
LWPOLYLINE
5
220
100
AcDbEntity
8
0
100
AcDbPolyline
90
6
70
1
43
0.0
10
313
20
62.400000000000006
10
310.5
20
58.069872981077815
10
313
20
53.739745962155624
10
318
20
53.739745962155624
10
320.50000000000006
20
58.069872981077815
10
318
20
62.400000000000006
0
LWPOLYLINE
5
221
100
AcDbEntity
8
0
100
AcDbPolyline
90
6
70
1
43
0.0
10
266
20
46.099999999999994
10
263.5
20
41.76987298107781
10
266
20
37.439745962155619
10
271
20
37.439745962155619
10
273.5
20
41.76987298107781
10
271
20
46.099999999999994
0
LWPOLYLINE
5
222
100
AcDbEntity
8
0
100
AcDbPolyline
90
6
70
1
43
0.0
10
281.66666666666669
20
46.099999999999994
10
279.16666666666669
20
41.76987298107781
10
281.66666666666669
20
37.439745962155619
10
286.66666666666669
20
37.439745962155619
10
289.16666666666669
20
41.76987298107781
10
286.66666666666669
20
46.099999999999994
0
LWPOLYLINE
5
223
100
AcDbEntity
8
0
100
AcDbPolyline
90
6
70
1
43
0.0
10
297.33333333333337
20
46.099999999999994
10
294.83333333333337
20
41.76987298107781
10
297.33333333333337
20
37.439745962155619
10
302.33333333333337
20
37.439745962155619
10
304.83333333333337
20
41.76987298107781
10
302.33333333333337
20
46.099999999999994
0
LWPOLYLINE
5
224
100
AcDbEntity
8
0
100
AcDbPolyline
90
6
70
1
43
0.0
10
313
20
46.099999999999994
10
310.5
20
41.76987298107781
10
313
20
37.439745962155619
10
318
20
37.439745962155619
10
320.50000000000006
20
41.76987298107781
10
318
20
46.099999999999994
0
LWPOLYLINE
5
225
100
AcDbEntity
8
0
100
AcDbPolyline
90
6
70
1
43
0.0
10
266
20
29.799999999999997
10
263.5
20
25.469872981077806
10
266
20
21.139745962155622
10
271
20
21.139745962155622
10
273.5
20
25.469872981077806
10
271
20
29.799999999999997
0
LWPOLYLINE
5
226
100
AcDbEntity
8
0
100
AcDbPolyline
90
6
70
1
43
0.0
10
281.66666666666669
20
29.799999999999997
10
279.16666666666669
20
25.469872981077806
10
281.66666666666669
20
21.139745962155622
10
286.66666666666669
20
21.139745962155622
10
289.16666666666669
20
25.469872981077806
10
286.66666666666669
20
29.799999999999997
0
LWPOLYLINE
5
227
100
AcDbEntity
8
0
100
AcDbPolyline
90
6
70
1
43
0.0
10
297.33333333333337
20
29.799999999999997
10
294.83333333333337
20
25.469872981077806
10
297.33333333333337
20
21.139745962155622
10
302.33333333333337
20
21.139745962155622
10
304.83333333333337
20
25.469872981077806
10
302.33333333333337
20
29.799999999999997
0
LWPOLYLINE
5
228
100
AcDbEntity
8
0
100
AcDbPolyline
90
6
70
1
43
0.0
10
313
20
29.799999999999997
10
310.5
20
25.469872981077806
10
313
20
21.139745962155622
10
318
20
21.139745962155622
10
320.50000000000006
20
25.469872981077806
10
318
20
29.799999999999997
0
LWPOLYLINE
5
229
100
AcDbEntity
8
0
100
AcDbPolyline
90
6
70
1
43
0.0
10
266
20
13.499999999999996
10
263.5
20
9.169872981077809
10
266
20
4.8397459621556216
10
271
20
4.8397459621556216
10
273.5
20
9.169872981077809
10
271
20
13.499999999999996
0
LWPOLYLINE
5
230
100
AcDbEntity
8
0
100
AcDbPolyline
90
6
70
1
43
0.0
10
281.66666666666669
20
13.499999999999996
10
279.16666666666669
20
9.169872981077809
10
281.66666666666669
20
4.8397459621556216
10
286.66666666666669
20
4.8397459621556216
10
289.16666666666669
20
9.169872981077809
10
286.66666666666669
20
13.499999999999996
0
LWPOLYLINE
5
231
100
AcDbEntity
8
0
100
AcDbPolyline
90
6
70
1
43
0.0
10
297.33333333333337
20
13.499999999999996
10
294.83333333333337
20
9.169872981077809
10
297.33333333333337
20
4.8397459621556216
10
302.33333333333337
20
4.8397459621556216
10
304.83333333333337
20
9.169872981077809
10
302.33333333333337
20
13.499999999999996
0
LWPOLYLINE
5
232
100
AcDbEntity
8
0
100
AcDbPolyline
90
6
70
1
43
0.0
10
313
20
13.499999999999996
10
310.5
20
9.169872981077809
10
313
20
4.8397459621556216
10
318
20
4.8397459621556216
10
320.50000000000006
20
9.169872981077809
10
318
20
13.499999999999996
0
LWPOLYLINE
5
233
100
AcDbEntity
8
0
100
AcDbPolyline
90
6
70
1
43
0.0
10
320.50000000000006
20
58.069872981077815
10
318
20
62.400000000000006
10
313
20
62.400000000000006
10
310.5
20
58.069872981077815
10
313
20
53.739745962155624
10
318
20
53.739745962155624
0
LWPOLYLINE
5
234
100
AcDbEntity
8
0
100
AcDbPolyline
90
6
70
1
43
0.0
10
302.33333333333337
20
4.8397459621556216
10
304.83333333333337
20
9.169872981077809
10
302.33333333333337
20
13.499999999999996
10
297.33333333333337
20
13.499999999999996
10
294.83333333333337
20
9.169872981077809
10
297.33333333333337
20
4.8397459621556216
0
LWPOLYLINE
5
235
100
AcDbEntity
8
0
100
AcDbPolyline
90
6
70
1
43
0.0
10
304.83333333333337
20
58.069872981077815
10
302.33333333333337
20
62.400000000000006
10
297.33333333333337
20
62.400000000000006
10
294.83333333333337
20
58.069872981077815
10
297.33333333333337
20
53.739745962155624
10
302.33333333333337
20
53.739745962155624
0
LWPOLYLINE
5
236
100
AcDbEntity
8
0
100
AcDbPolyline
90
6
70
1
43
0.0
10
289.16666666666669
20
41.76987298107781
10
286.66666666666669
20
46.099999999999994
10
281.66666666666669
20
46.099999999999994
10
279.16666666666669
20
41.76987298107781
10
281.66666666666669
20
37.439745962155619
10
286.66666666666669
20
37.439745962155619
0
LWPOLYLINE
5
237
100
AcDbEntity
8
0
100
AcDbPolyline
90
6
70
1
43
0.0
10
318
20
78.700000000000003
10
313
20
78.700000000000003
10
310.5
20
74.369872981077819
10
313
20
70.039745962155621
10
318
20
70.039745962155621
10
320.50000000000006
20
74.369872981077819
0
LWPOLYLINE
5
238
100
AcDbEntity
8
0
100
AcDbPolyline
90
6
70
1
43
0.0
10
313
20
4.8397459621556216
10
318
20
4.8397459621556216
10
320.50000000000006
20
9.169872981077809
10
318
20
13.499999999999996
10
313
20
13.499999999999996
10
310.5
20
9.169872981077809
0
LWPOLYLINE
5
239
100
AcDbEntity
8
0
100
AcDbPolyline
90
6
70
1
43
0.0
10
318
20
86.339745962155632
10
320.50000000000006
20
90.669872981077816
10
318
20
95
10
313
20
95
10
310.5
20
90.669872981077816
10
313
20
86.339745962155632
0
LWPOLYLINE
5
240
100
AcDbEntity
8
0
100
AcDbPolyline
90
6
70
1
43
0.0
10
289.16666666666669
20
25.469872981077806
10
286.66666666666669
20
29.799999999999997
10
281.66666666666669
20
29.799999999999997
10
279.16666666666669
20
25.469872981077806
10
281.66666666666669
20
21.139745962155622
10
286.66666666666669
20
21.139745962155622
0
LWPOLYLINE
5
241
100
AcDbEntity
8
0
100
AcDbPolyline
90
6
70
1
43
0.0
10
297.33333333333337
20
86.339745962155632
10
302.33333333333337
20
86.339745962155632
10
304.83333333333337
20
90.669872981077816
10
302.33333333333337
20
95
10
297.33333333333337
20
95
10
294.83333333333337
20
90.669872981077816
0
LWPOLYLINE
5
242
100
AcDbEntity
8
0
100
AcDbPolyline
90
6
70
1
43
0.0
10
289.16666666666669
20
9.169872981077809
10
286.66666666666669
20
13.499999999999996
10
281.66666666666669
20
13.499999999999996
10
279.16666666666669
20
9.169872981077809
10
281.66666666666669
20
4.8397459621556216
10
286.66666666666669
20
4.8397459621556216
0
LWPOLYLINE
5
243
100
AcDbEntity
8
0
100
AcDbPolyline
90
6
70
1
43
0.0
10
318
20
29.799999999999997
10
313
20
29.799999999999997
10
310.5
20
25.469872981077806
10
313
20
21.139745962155622
10
318
20
21.139745962155622
10
320.50000000000006
20
25.469872981077806
0
LWPOLYLINE
5
244
100
AcDbEntity
8
0
100
AcDbPolyline
90
6
70
1
43
0.0
10
286.66666666666669
20
86.339745962155632
10
289.16666666666669
20
90.669872981077816
10
286.66666666666669
20
95
10
281.66666666666669
20
95
10
279.16666666666669
20
90.669872981077816
10
281.66666666666669
20
86.339745962155632
0
LWPOLYLINE
5
245
100
AcDbEntity
8
0
100
AcDbPolyline
90
6
70
1
43
0.0
10
304.83333333333337
20
74.369872981077819
10
302.33333333333337
20
78.700000000000003
10
297.33333333333337
20
78.700000000000003
10
294.83333333333337
20
74.369872981077819
10
297.33333333333337
20
70.039745962155621
10
302.33333333333337
20
70.039745962155621
0
LWPOLYLINE
5
246
100
AcDbEntity
8
0
100
AcDbPolyline
90
6
70
1
43
0.0
10
320.50000000000006
20
41.76987298107781
10
318
20
46.099999999999994
10
313
20
46.099999999999994
10
310.5
20
41.76987298107781
10
313
20
37.439745962155619
10
318
20
37.439745962155619
0
LWPOLYLINE
5
247
100
AcDbEntity
8
0
100
AcDbPolyline
90
6
70
1
43
0.0
10
289.16666666666669
20
58.069872981077815
10
286.66666666666669
20
62.400000000000006
10
281.66666666666669
20
62.400000000000006
10
279.16666666666669
20
58.069872981077815
10
281.66666666666669
20
53.739745962155624
10
286.66666666666669
20
53.739745962155624
0
LWPOLYLINE
5
248
100
AcDbEntity
8
0
100
AcDbPolyline
90
6
70
1
43
0.0
10
294.83333333333337
20
41.76987298107781
10
297.33333333333337
20
37.439745962155619
10
302.33333333333337
20
37.439745962155619
10
304.83333333333337
20
41.76987298107781
10
302.33333333333337
20
46.099999999999994
10
297.33333333333337
20
46.099999999999994
0
LWPOLYLINE
5
249
100
AcDbEntity
8
0
100
AcDbPolyline
90
6
70
1
43
0.0
10
271
20
78.700000000000003
10
266
20
78.700000000000003
10
263.5
20
74.369872981077819
10
266
20
70.039745962155621
10
271
20
70.039745962155621
10
273.5
20
74.369872981077819
0
LWPOLYLINE
5
250
100
AcDbEntity
8
0
100
AcDbPolyline
90
6
70
1
43
0.0
10
273.5
20
90.669872981077816
10
271
20
95
10
266
20
95
10
263.5
20
90.669872981077816
10
266
20
86.339745962155632
10
271
20
86.339745962155632
0
LWPOLYLINE
5
251
100
AcDbEntity
8
0
100
AcDbPolyline
90
6
70
1
43
0.0
10
263.5
20
25.469872981077806
10
266
20
21.139745962155622
10
271
20
21.139745962155622
10
273.5
20
25.469872981077806
10
271
20
29.799999999999997
10
266
20
29.799999999999997
0
LWPOLYLINE
5
252
100
AcDbEntity
8
0
100
AcDbPolyline
90
6
70
1
43
0.0
10
271
20
4.8397459621556216
10
273.5
20
9.169872981077809
10
271
20
13.499999999999996
10
266
20
13.499999999999996
10
263.5
20
9.169872981077809
10
266
20
4.8397459621556216
0
LWPOLYLINE
5
253
100
AcDbEntity
8
0
100
AcDbPolyline
90
6
70
1
43
0.0
10
263.5
20
41.76987298107781
10
266
20
37.439745962155619
10
271
20
37.439745962155619
10
273.5
20
41.76987298107781
10
271
20
46.099999999999994
10
266
20
46.099999999999994
0
LWPOLYLINE
5
254
100
AcDbEntity
8
0
100
AcDbPolyline
90
6
70
1
43
0.0
10
266
20
62.400000000000006
10
263.5
20
58.069872981077815
10
266
20
53.739745962155624
10
271
20
53.739745962155624
10
273.5
20
58.069872981077815
10
271
20
62.400000000000006
0
LWPOLYLINE
5
255
100
AcDbEntity
8
0
100
AcDbPolyline
90
6
70
1
43
0.0
10
286.66666666666669
20
78.700000000000003
10
281.66666666666669
20
78.700000000000003
10
279.16666666666669
20
74.369872981077819
10
281.66666666666669
20
70.039745962155621
10
286.66666666666669
20
70.039745962155621
10
289.16666666666669
20
74.369872981077819
0
LWPOLYLINE
5
256
100
AcDbEntity
8
0
100
AcDbPolyline
90
6
70
1
43
0.0
10
302.33333333333337
20
29.799999999999997
10
297.33333333333337
20
29.799999999999997
10
294.83333333333337
20
25.469872981077806
10
297.33333333333337
20
21.139745962155622
10
302.33333333333337
20
21.139745962155622
10
304.83333333333337
20
25.469872981077806
0
LINE
5
257
100
AcDbEntity
8
0
100
AcDbLine
10
76.295999999999992
20
86.339745962155632
30
0
11
78.795999999999992
21
90.669872981077816
31
0
0
LINE
5
258
100
AcDbEntity
8
0
100
AcDbLine
10
78.795999999999992
20
90.669872981077816
30
0
11
76.295999999999992
21
95
31
0
0
LINE
5
259
100
AcDbEntity
8
0
100
AcDbLine
10
76.295999999999992
20
95
30
0
11
71.295999999999992
21
95
31
0
0
LINE
5
260
100
AcDbEntity
8
0
100
AcDbLine
10
71.295999999999992
20
95
30
0
11
68.795999999999992
21
90.669872981077816
31
0
0
LINE
5
261
100
AcDbEntity
8
0
100
AcDbLine
10
68.795999999999992
20
90.669872981077816
30
0
11
71.295999999999992
21
86.339745962155632
31
0
0
LINE
5
262
100
AcDbEntity
8
0
100
AcDbLine
10
71.295999999999992
20
86.339745962155632
30
0
11
76.295999999999992
21
86.339745962155632
31
0
0
LINE
5
263
100
AcDbEntity
8
0
100
AcDbLine
10
86.962666666666664
20
95
30
0
11
84.462666666666664
21
90.669872981077816
31
0
0
LINE
5
264
100
AcDbEntity
8
0
100
AcDbLine
10
91.962666666666664
20
95
30
0
11
86.962666666666664
21
95
31
0
0
LINE
5
265
100
AcDbEntity
8
0
100
AcDbLine
10
94.462666666666664
20
90.669872981077816
30
0
11
91.962666666666664
21
95
31
0
0
LINE
5
266
100
AcDbEntity
8
0
100
AcDbLine
10
91.962666666666664
20
86.339745962155632
30
0
11
94.462666666666664
21
90.669872981077816
31
0
0
LINE
5
267
100
AcDbEntity
8
0
100
AcDbLine
10
86.962666666666664
20
86.339745962155632
30
0
11
91.962666666666664
21
86.339745962155632
31
0
0
LINE
5
268
100
AcDbEntity
8
0
100
AcDbLine
10
84.462666666666664
20
90.669872981077816
30
0
11
86.962666666666664
21
86.339745962155632
31
0
0
LINE
5
269
100
AcDbEntity
8
0
100
AcDbLine
10
102.62933333333334
20
95
30
0
11
100.12933333333334
21
90.669872981077816
31
0
0
LINE
5
270
100
AcDbEntity
8
0
100
AcDbLine
10
107.62933333333334
20
95
30
0
11
102.62933333333334
21
95
31
0
0
LINE
5
271
100
AcDbEntity
8
0
100
AcDbLine
10
110.12933333333334
20
90.669872981077816
30
0
11
107.62933333333334
21
95
31
0
0
LINE
5
272
100
AcDbEntity
8
0
100
AcDbLine
10
107.62933333333334
20
86.339745962155632
30
0
11
110.12933333333334
21
90.669872981077816
31
0
0
LINE
5
273
100
AcDbEntity
8
0
100
AcDbLine
10
102.62933333333334
20
86.339745962155632
30
0
11
107.62933333333334
21
86.339745962155632
31
0
0
LINE
5
274
100
AcDbEntity
8
0
100
AcDbLine
10
100.12933333333334
20
90.669872981077816
30
0
11
102.62933333333334
21
86.339745962155632
31
0
0
LINE
5
275
100
AcDbEntity
8
0
100
AcDbLine
10
118.29599999999999
20
95
30
0
11
115.79599999999999
21
90.669872981077816
31
0
0
LINE
5
276
100
AcDbEntity
8
0
100
AcDbLine
10
123.29599999999999
20
95
30
0
11
118.29599999999999
21
95
31
0
0
LINE
5
277
100
AcDbEntity
8
0
100
AcDbLine
10
125.79599999999999
20
90.669872981077816
30
0
11
123.29599999999999
21
95
31
0
0
LINE
5
278
100
AcDbEntity
8
0
100
AcDbLine
10
123.29599999999999
20
86.339745962155632
30
0
11
125.79599999999999
21
90.669872981077816
31
0
0
LINE
5
279
100
AcDbEntity
8
0
100
AcDbLine
10
118.29599999999999
20
86.339745962155632
30
0
11
123.29599999999999
21
86.339745962155632
31
0
0
LINE
5
280
100
AcDbEntity
8
0
100
AcDbLine
10
115.79599999999999
20
90.669872981077816
30
0
11
118.29599999999999
21
86.339745962155632
31
0
0
LINE
5
281
100
AcDbEntity
8
0
100
AcDbLine
10
71.295999999999992
20
78.700000000000003
30
0
11
68.795999999999992
21
74.369872981077819
31
0
0
LINE
5
282
100
AcDbEntity
8
0
100
AcDbLine
10
76.295999999999992
20
78.700000000000003
30
0
11
71.295999999999992
21
78.700000000000003
31
0
0
LINE
5
283
100
AcDbEntity
8
0
100
AcDbLine
10
78.795999999999992
20
74.369872981077819
30
0
11
76.295999999999992
21
78.700000000000003
31
0
0
LINE
5
284
100
AcDbEntity
8
0
100
AcDbLine
10
76.295999999999992
20
70.039745962155621
30
0
11
78.795999999999992
21
74.369872981077819
31
0
0
LINE
5
285
100
AcDbEntity
8
0
100
AcDbLine
10
71.295999999999992
20
70.039745962155621
30
0
11
76.295999999999992
21
70.039745962155621
31
0
0
LINE
5
286
100
AcDbEntity
8
0
100
AcDbLine
10
68.795999999999992
20
74.369872981077819
30
0
11
71.295999999999992
21
70.039745962155621
31
0
0
LINE
5
287
100
AcDbEntity
8
0
100
AcDbLine
10
86.962666666666664
20
78.700000000000003
30
0
11
84.462666666666664
21
74.369872981077819
31
0
0
LINE
5
288
100
AcDbEntity
8
0
100
AcDbLine
10
91.962666666666664
20
78.700000000000003
30
0
11
86.962666666666664
21
78.700000000000003
31
0
0
LINE
5
289
100
AcDbEntity
8
0
100
AcDbLine
10
94.462666666666664
20
74.369872981077819
30
0
11
91.962666666666664
21
78.700000000000003
31
0
0
LINE
5
290
100
AcDbEntity
8
0
100
AcDbLine
10
91.962666666666664
20
70.039745962155621
30
0
11
94.462666666666664
21
74.369872981077819
31
0
0
LINE
5
291
100
AcDbEntity
8
0
100
AcDbLine
10
86.962666666666664
20
70.039745962155621
30
0
11
91.962666666666664
21
70.039745962155621
31
0
0
LINE
5
292
100
AcDbEntity
8
0
100
AcDbLine
10
84.462666666666664
20
74.369872981077819
30
0
11
86.962666666666664
21
70.039745962155621
31
0
0
LINE
5
293
100
AcDbEntity
8
0
100
AcDbLine
10
102.62933333333334
20
78.700000000000003
30
0
11
100.12933333333334
21
74.369872981077819
31
0
0
LINE
5
294
100
AcDbEntity
8
0
100
AcDbLine
10
107.62933333333334
20
78.700000000000003
30
0
11
102.62933333333334
21
78.700000000000003
31
0
0
LINE
5
295
100
AcDbEntity
8
0
100
AcDbLine
10
110.12933333333334
20
74.369872981077819
30
0
11
107.62933333333334
21
78.700000000000003
31
0
0
LINE
5
296
100
AcDbEntity
8
0
100
AcDbLine
10
107.62933333333334
20
70.039745962155621
30
0
11
110.12933333333334
21
74.369872981077819
31
0
0
LINE
5
297
100
AcDbEntity
8
0
100
AcDbLine
10
102.62933333333334
20
70.039745962155621
30
0
11
107.62933333333334
21
70.039745962155621
31
0
0
LINE
5
298
100
AcDbEntity
8
0
100
AcDbLine
10
100.12933333333334
20
74.369872981077819
30
0
11
102.62933333333334
21
70.039745962155621
31
0
0
LINE
5
299
100
AcDbEntity
8
0
100
AcDbLine
10
118.29599999999999
20
78.700000000000003
30
0
11
115.79599999999999
21
74.369872981077819
31
0
0
LINE
5
300
100
AcDbEntity
8
0
100
AcDbLine
10
123.29599999999999
20
78.700000000000003
30
0
11
118.29599999999999
21
78.700000000000003
31
0
0
LINE
5
301
100
AcDbEntity
8
0
100
AcDbLine
10
125.79599999999999
20
74.369872981077819
30
0
11
123.29599999999999
21
78.700000000000003
31
0
0
LINE
5
302
100
AcDbEntity
8
0
100
AcDbLine
10
123.29599999999999
20
70.039745962155621
30
0
11
125.79599999999999
21
74.369872981077819
31
0
0
LINE
5
303
100
AcDbEntity
8
0
100
AcDbLine
10
118.29599999999999
20
70.039745962155621
30
0
11
123.29599999999999
21
70.039745962155621
31
0
0
LINE
5
304
100
AcDbEntity
8
0
100
AcDbLine
10
115.79599999999999
20
74.369872981077819
30
0
11
118.29599999999999
21
70.039745962155621
31
0
0
LINE
5
305
100
AcDbEntity
8
0
100
AcDbLine
10
71.295999999999992
20
62.400000000000006
30
0
11
68.795999999999992
21
58.069872981077815
31
0
0
LINE
5
306
100
AcDbEntity
8
0
100
AcDbLine
10
76.295999999999992
20
62.400000000000006
30
0
11
71.295999999999992
21
62.400000000000006
31
0
0
LINE
5
307
100
AcDbEntity
8
0
100
AcDbLine
10
78.795999999999992
20
58.069872981077815
30
0
11
76.295999999999992
21
62.400000000000006
31
0
0
LINE
5
308
100
AcDbEntity
8
0
100
AcDbLine
10
76.295999999999992
20
53.739745962155624
30
0
11
78.795999999999992
21
58.069872981077815
31
0
0
LINE
5
309
100
AcDbEntity
8
0
100
AcDbLine
10
71.295999999999992
20
53.739745962155624
30
0
11
76.295999999999992
21
53.739745962155624
31
0
0
LINE
5
310
100
AcDbEntity
8
0
100
AcDbLine
10
68.795999999999992
20
58.069872981077815
30
0
11
71.295999999999992
21
53.739745962155624
31
0
0
LINE
5
311
100
AcDbEntity
8
0
100
AcDbLine
10
86.962666666666664
20
62.400000000000006
30
0
11
84.462666666666664
21
58.069872981077815
31
0
0
LINE
5
312
100
AcDbEntity
8
0
100
AcDbLine
10
91.962666666666664
20
62.400000000000006
30
0
11
86.962666666666664
21
62.400000000000006
31
0
0
LINE
5
313
100
AcDbEntity
8
0
100
AcDbLine
10
94.462666666666664
20
58.069872981077815
30
0
11
91.962666666666664
21
62.400000000000006
31
0
0
LINE
5
314
100
AcDbEntity
8
0
100
AcDbLine
10
91.962666666666664
20
53.739745962155624
30
0
11
94.462666666666664
21
58.069872981077815
31
0
0
LINE
5
315
100
AcDbEntity
8
0
100
AcDbLine
10
86.962666666666664
20
53.739745962155624
30
0
11
91.962666666666664
21
53.739745962155624
31
0
0
LINE
5
316
100
AcDbEntity
8
0
100
AcDbLine
10
84.462666666666664
20
58.069872981077815
30
0
11
86.962666666666664
21
53.739745962155624
31
0
0
LINE
5
317
100
AcDbEntity
8
0
100
AcDbLine
10
102.62933333333334
20
62.400000000000006
30
0
11
100.12933333333334
21
58.069872981077815
31
0
0
LINE
5
318
100
AcDbEntity
8
0
100
AcDbLine
10
107.62933333333334
20
62.400000000000006
30
0
11
102.62933333333334
21
62.400000000000006
31
0
0
LINE
5
319
100
AcDbEntity
8
0
100
AcDbLine
10
110.12933333333334
20
58.069872981077815
30
0
11
107.62933333333334
21
62.400000000000006
31
0
0
LINE
5
320
100
AcDbEntity
8
0
100
AcDbLine
10
107.62933333333334
20
53.739745962155624
30
0
11
110.12933333333334
21
58.069872981077815
31
0
0
LINE
5
321
100
AcDbEntity
8
0
100
AcDbLine
10
102.62933333333334
20
53.739745962155624
30
0
11
107.62933333333334
21
53.739745962155624
31
0
0
LINE
5
322
100
AcDbEntity
8
0
100
AcDbLine
10
100.12933333333334
20
58.069872981077815
30
0
11
102.62933333333334
21
53.739745962155624
31
0
0
LINE
5
323
100
AcDbEntity
8
0
100
AcDbLine
10
118.29599999999999
20
62.400000000000006
30
0
11
115.79599999999999
21
58.069872981077815
31
0
0
LINE
5
324
100
AcDbEntity
8
0
100
AcDbLine
10
123.29599999999999
20
62.400000000000006
30
0
11
118.29599999999999
21
62.400000000000006
31
0
0
LINE
5
325
100
AcDbEntity
8
0
100
AcDbLine
10
125.79599999999999
20
58.069872981077815
30
0
11
123.29599999999999
21
62.400000000000006
31
0
0
LINE
5
326
100
AcDbEntity
8
0
100
AcDbLine
10
123.29599999999999
20
53.739745962155624
30
0
11
125.79599999999999
21
58.069872981077815
31
0
0
LINE
5
327
100
AcDbEntity
8
0
100
AcDbLine
10
118.29599999999999
20
53.739745962155624
30
0
11
123.29599999999999
21
53.739745962155624
31
0
0
LINE
5
328
100
AcDbEntity
8
0
100
AcDbLine
10
115.79599999999999
20
58.069872981077815
30
0
11
118.29599999999999
21
53.739745962155624
31
0
0
LINE
5
329
100
AcDbEntity
8
0
100
AcDbLine
10
71.295999999999992
20
46.099999999999994
30
0
11
68.795999999999992
21
41.76987298107781
31
0
0
LINE
5
330
100
AcDbEntity
8
0
100
AcDbLine
10
76.295999999999992
20
46.099999999999994
30
0
11
71.295999999999992
21
46.099999999999994
31
0
0
LINE
5
331
100
AcDbEntity
8
0
100
AcDbLine
10
78.795999999999992
20
41.76987298107781
30
0
11
76.295999999999992
21
46.099999999999994
31
0
0
LINE
5
332
100
AcDbEntity
8
0
100
AcDbLine
10
76.295999999999992
20
37.439745962155619
30
0
11
78.795999999999992
21
41.76987298107781
31
0
0
LINE
5
333
100
AcDbEntity
8
0
100
AcDbLine
10
71.295999999999992
20
37.439745962155619
30
0
11
76.295999999999992
21
37.439745962155619
31
0
0
LINE
5
334
100
AcDbEntity
8
0
100
AcDbLine
10
68.795999999999992
20
41.76987298107781
30
0
11
71.295999999999992
21
37.439745962155619
31
0
0
LINE
5
335
100
AcDbEntity
8
0
100
AcDbLine
10
86.962666666666664
20
46.099999999999994
30
0
11
84.462666666666664
21
41.76987298107781
31
0
0
LINE
5
336
100
AcDbEntity
8
0
100
AcDbLine
10
91.962666666666664
20
46.099999999999994
30
0
11
86.962666666666664
21
46.099999999999994
31
0
0
LINE
5
337
100
AcDbEntity
8
0
100
AcDbLine
10
94.462666666666664
20
41.76987298107781
30
0
11
91.962666666666664
21
46.099999999999994
31
0
0
LINE
5
338
100
AcDbEntity
8
0
100
AcDbLine
10
91.962666666666664
20
37.439745962155619
30
0
11
94.462666666666664
21
41.76987298107781
31
0
0
LINE
5
339
100
AcDbEntity
8
0
100
AcDbLine
10
86.962666666666664
20
37.439745962155619
30
0
11
91.962666666666664
21
37.439745962155619
31
0
0
LINE
5
340
100
AcDbEntity
8
0
100
AcDbLine
10
84.462666666666664
20
41.76987298107781
30
0
11
86.962666666666664
21
37.439745962155619
31
0
0
LINE
5
341
100
AcDbEntity
8
0
100
AcDbLine
10
102.62933333333334
20
46.099999999999994
30
0
11
100.12933333333334
21
41.76987298107781
31
0
0
LINE
5
342
100
AcDbEntity
8
0
100
AcDbLine
10
107.62933333333334
20
46.099999999999994
30
0
11
102.62933333333334
21
46.099999999999994
31
0
0
LINE
5
343
100
AcDbEntity
8
0
100
AcDbLine
10
110.12933333333334
20
41.76987298107781
30
0
11
107.62933333333334
21
46.099999999999994
31
0
0
LINE
5
344
100
AcDbEntity
8
0
100
AcDbLine
10
107.62933333333334
20
37.439745962155619
30
0
11
110.12933333333334
21
41.76987298107781
31
0
0
LINE
5
345
100
AcDbEntity
8
0
100
AcDbLine
10
102.62933333333334
20
37.439745962155619
30
0
11
107.62933333333334
21
37.439745962155619
31
0
0
LINE
5
346
100
AcDbEntity
8
0
100
AcDbLine
10
100.12933333333334
20
41.76987298107781
30
0
11
102.62933333333334
21
37.439745962155619
31
0
0
LINE
5
347
100
AcDbEntity
8
0
100
AcDbLine
10
118.29599999999999
20
46.099999999999994
30
0
11
115.79599999999999
21
41.76987298107781
31
0
0
LINE
5
348
100
AcDbEntity
8
0
100
AcDbLine
10
123.29599999999999
20
46.099999999999994
30
0
11
118.29599999999999
21
46.099999999999994
31
0
0
LINE
5
349
100
AcDbEntity
8
0
100
AcDbLine
10
125.79599999999999
20
41.76987298107781
30
0
11
123.29599999999999
21
46.099999999999994
31
0
0
LINE
5
350
100
AcDbEntity
8
0
100
AcDbLine
10
123.29599999999999
20
37.439745962155619
30
0
11
125.79599999999999
21
41.76987298107781
31
0
0
LINE
5
351
100
AcDbEntity
8
0
100
AcDbLine
10
118.29599999999999
20
37.439745962155619
30
0
11
123.29599999999999
21
37.439745962155619
31
0
0
LINE
5
352
100
AcDbEntity
8
0
100
AcDbLine
10
115.79599999999999
20
41.76987298107781
30
0
11
118.29599999999999
21
37.439745962155619
31
0
0
LINE
5
353
100
AcDbEntity
8
0
100
AcDbLine
10
71.295999999999992
20
29.799999999999997
30
0
11
68.795999999999992
21
25.469872981077806
31
0
0
LINE
5
354
100
AcDbEntity
8
0
100
AcDbLine
10
76.295999999999992
20
29.799999999999997
30
0
11
71.295999999999992
21
29.799999999999997
31
0
0
LINE
5
355
100
AcDbEntity
8
0
100
AcDbLine
10
78.795999999999992
20
25.469872981077806
30
0
11
76.295999999999992
21
29.799999999999997
31
0
0
LINE
5
356
100
AcDbEntity
8
0
100
AcDbLine
10
76.295999999999992
20
21.139745962155622
30
0
11
78.795999999999992
21
25.469872981077806
31
0
0
LINE
5
357
100
AcDbEntity
8
0
100
AcDbLine
10
71.295999999999992
20
21.139745962155622
30
0
11
76.295999999999992
21
21.139745962155622
31
0
0
LINE
5
358
100
AcDbEntity
8
0
100
AcDbLine
10
68.795999999999992
20
25.469872981077806
30
0
11
71.295999999999992
21
21.139745962155622
31
0
0
LINE
5
359
100
AcDbEntity
8
0
100
AcDbLine
10
86.962666666666664
20
29.799999999999997
30
0
11
84.462666666666664
21
25.469872981077806
31
0
0
LINE
5
360
100
AcDbEntity
8
0
100
AcDbLine
10
91.962666666666664
20
29.799999999999997
30
0
11
86.962666666666664
21
29.799999999999997
31
0
0
LINE
5
361
100
AcDbEntity
8
0
100
AcDbLine
10
94.462666666666664
20
25.469872981077806
30
0
11
91.962666666666664
21
29.799999999999997
31
0
0
LINE
5
362
100
AcDbEntity
8
0
100
AcDbLine
10
91.962666666666664
20
21.139745962155622
30
0
11
94.462666666666664
21
25.469872981077806
31
0
0
LINE
5
363
100
AcDbEntity
8
0
100
AcDbLine
10
86.962666666666664
20
21.139745962155622
30
0
11
91.962666666666664
21
21.139745962155622
31
0
0
LINE
5
364
100
AcDbEntity
8
0
100
AcDbLine
10
84.462666666666664
20
25.469872981077806
30
0
11
86.962666666666664
21
21.139745962155622
31
0
0
LINE
5
365
100
AcDbEntity
8
0
100
AcDbLine
10
102.62933333333334
20
29.799999999999997
30
0
11
100.12933333333334
21
25.469872981077806
31
0
0
LINE
5
366
100
AcDbEntity
8
0
100
AcDbLine
10
107.62933333333334
20
29.799999999999997
30
0
11
102.62933333333334
21
29.799999999999997
31
0
0
LINE
5
367
100
AcDbEntity
8
0
100
AcDbLine
10
110.12933333333334
20
25.469872981077806
30
0
11
107.62933333333334
21
29.799999999999997
31
0
0
LINE
5
368
100
AcDbEntity
8
0
100
AcDbLine
10
107.62933333333334
20
21.139745962155622
30
0
11
110.12933333333334
21
25.469872981077806
31
0
0
LINE
5
369
100
AcDbEntity
8
0
100
AcDbLine
10
102.62933333333334
20
21.139745962155622
30
0
11
107.62933333333334
21
21.139745962155622
31
0
0
LINE
5
370
100
AcDbEntity
8
0
100
AcDbLine
10
100.12933333333334
20
25.469872981077806
30
0
11
102.62933333333334
21
21.139745962155622
31
0
0
LINE
5
371
100
AcDbEntity
8
0
100
AcDbLine
10
118.29599999999999
20
29.799999999999997
30
0
11
115.79599999999999
21
25.469872981077806
31
0
0
LINE
5
372
100
AcDbEntity
8
0
100
AcDbLine
10
123.29599999999999
20
29.799999999999997
30
0
11
118.29599999999999
21
29.799999999999997
31
0
0
LINE
5
373
100
AcDbEntity
8
0
100
AcDbLine
10
125.79599999999999
20
25.469872981077806
30
0
11
123.29599999999999
21
29.799999999999997
31
0
0
LINE
5
374
100
AcDbEntity
8
0
100
AcDbLine
10
123.29599999999999
20
21.139745962155622
30
0
11
125.79599999999999
21
25.469872981077806
31
0
0
LINE
5
375
100
AcDbEntity
8
0
100
AcDbLine
10
118.29599999999999
20
21.139745962155622
30
0
11
123.29599999999999
21
21.139745962155622
31
0
0
LINE
5
376
100
AcDbEntity
8
0
100
AcDbLine
10
115.79599999999999
20
25.469872981077806
30
0
11
118.29599999999999
21
21.139745962155622
31
0
0
LINE
5
377
100
AcDbEntity
8
0
100
AcDbLine
10
71.295999999999992
20
13.499999999999996
30
0
11
68.795999999999992
21
9.169872981077809
31
0
0
LINE
5
378
100
AcDbEntity
8
0
100
AcDbLine
10
76.295999999999992
20
13.499999999999996
30
0
11
71.295999999999992
21
13.499999999999996
31
0
0
LINE
5
379
100
AcDbEntity
8
0
100
AcDbLine
10
78.795999999999992
20
9.169872981077809
30
0
11
76.295999999999992
21
13.499999999999996
31
0
0
LINE
5
380
100
AcDbEntity
8
0
100
AcDbLine
10
76.295999999999992
20
4.8397459621556216
30
0
11
78.795999999999992
21
9.169872981077809
31
0
0
LINE
5
381
100
AcDbEntity
8
0
100
AcDbLine
10
71.295999999999992
20
4.8397459621556216
30
0
11
76.295999999999992
21
4.8397459621556216
31
0
0
LINE
5
382
100
AcDbEntity
8
0
100
AcDbLine
10
68.795999999999992
20
9.169872981077809
30
0
11
71.295999999999992
21
4.8397459621556216
31
0
0
LINE
5
383
100
AcDbEntity
8
0
100
AcDbLine
10
86.962666666666664
20
13.499999999999996
30
0
11
84.462666666666664
21
9.169872981077809
31
0
0
LINE
5
384
100
AcDbEntity
8
0
100
AcDbLine
10
91.962666666666664
20
13.499999999999996
30
0
11
86.962666666666664
21
13.499999999999996
31
0
0
LINE
5
385
100
AcDbEntity
8
0
100
AcDbLine
10
94.462666666666664
20
9.169872981077809
30
0
11
91.962666666666664
21
13.499999999999996
31
0
0
LINE
5
386
100
AcDbEntity
8
0
100
AcDbLine
10
91.962666666666664
20
4.8397459621556216
30
0
11
94.462666666666664
21
9.169872981077809
31
0
0
LINE
5
387
100
AcDbEntity
8
0
100
AcDbLine
10
86.962666666666664
20
4.8397459621556216
30
0
11
91.962666666666664
21
4.8397459621556216
31
0
0
LINE
5
388
100
AcDbEntity
8
0
100
AcDbLine
10
84.462666666666664
20
9.169872981077809
30
0
11
86.962666666666664
21
4.8397459621556216
31
0
0
LINE
5
389
100
AcDbEntity
8
0
100
AcDbLine
10
102.62933333333334
20
13.499999999999996
30
0
11
100.12933333333334
21
9.169872981077809
31
0
0
LINE
5
390
100
AcDbEntity
8
0
100
AcDbLine
10
107.62933333333334
20
13.499999999999996
30
0
11
102.62933333333334
21
13.499999999999996
31
0
0
LINE
5
391
100
AcDbEntity
8
0
100
AcDbLine
10
110.12933333333334
20
9.169872981077809
30
0
11
107.62933333333334
21
13.499999999999996
31
0
0
LINE
5
392
100
AcDbEntity
8
0
100
AcDbLine
10
107.62933333333334
20
4.8397459621556216
30
0
11
110.12933333333334
21
9.169872981077809
31
0
0
LINE
5
393
100
AcDbEntity
8
0
100
AcDbLine
10
102.62933333333334
20
4.8397459621556216
30
0
11
107.62933333333334
21
4.8397459621556216
31
0
0
LINE
5
394
100
AcDbEntity
8
0
100
AcDbLine
10
100.12933333333334
20
9.169872981077809
30
0
11
102.62933333333334
21
4.8397459621556216
31
0
0
LINE
5
395
100
AcDbEntity
8
0
100
AcDbLine
10
118.29599999999999
20
13.499999999999996
30
0
11
115.79599999999999
21
9.169872981077809
31
0
0
LINE
5
396
100
AcDbEntity
8
0
100
AcDbLine
10
123.29599999999999
20
13.499999999999996
30
0
11
118.29599999999999
21
13.499999999999996
31
0
0
LINE
5
397
100
AcDbEntity
8
0
100
AcDbLine
10
125.79599999999999
20
9.169872981077809
30
0
11
123.29599999999999
21
13.499999999999996
31
0
0
LINE
5
398
100
AcDbEntity
8
0
100
AcDbLine
10
123.29599999999999
20
4.8397459621556216
30
0
11
125.79599999999999
21
9.169872981077809
31
0
0
LINE
5
399
100
AcDbEntity
8
0
100
AcDbLine
10
118.29599999999999
20
4.8397459621556216
30
0
11
123.29599999999999
21
4.8397459621556216
31
0
0
LINE
5
400
100
AcDbEntity
8
0
100
AcDbLine
10
115.79599999999999
20
9.169872981077809
30
0
11
118.29599999999999
21
4.8397459621556216
31
0
0
LINE
5
401
100
AcDbEntity
8
0
100
AcDbLine
10
55.669000000000004
20
0
30
0
11
55.669000000000004
21
100
31
0
0
LINE
5
402
100
AcDbEntity
8
0
100
AcDbLine
10
57.338000000000008
20
0
30
0
11
57.338000000000008
21
100
31
0
0
LINE
5
403
100
AcDbEntity
8
0
100
AcDbLine
10
59.007000000000005
20
0
30
0
11
59.007000000000005
21
100
31
0
0
LINE
5
404
100
AcDbEntity
8
0
100
AcDbLine
10
60.676000000000002
20
0
30
0
11
60.676000000000002
21
100
31
0
0
LINE
5
405
100
AcDbEntity
8
0
100
AcDbLine
10
62.345000000000006
20
0
30
0
11
62.345000000000006
21
100
31
0
0
LINE
5
406
100
AcDbEntity
8
0
100
AcDbLine
10
64.01400000000001
20
0
30
0
11
64.01400000000001
21
100
31
0
0
LINE
5
407
100
AcDbEntity
8
0
100
AcDbLine
10
65.683000000000007
20
0
30
0
11
65.683000000000007
21
100
31
0
0
LINE
5
408
100
AcDbEntity
8
0
100
AcDbLine
10
129.02100000000002
20
100
30
0
11
129.02100000000002
21
0
31
0
0
LINE
5
409
100
AcDbEntity
8
0
100
AcDbLine
10
130.69
20
100
30
0
11
130.69
21
0
31
0
0
LINE
5
410
100
AcDbEntity
8
0
100
AcDbLine
10
132.35900000000001
20
100
30
0
11
132.35900000000001
21
0
31
0
0
LINE
5
411
100
AcDbEntity
8
0
100
AcDbLine
10
134.02800000000002
20
100
30
0
11
134.02800000000002
21
0
31
0
0
LINE
5
412
100
AcDbEntity
8
0
100
AcDbLine
10
135.697
20
100
30
0
11
135.697
21
0
31
0
0
LINE
5
413
100
AcDbEntity
8
0
100
AcDbLine
10
137.36600000000001
20
100
30
0
11
137.36600000000001
21
0
31
0
0
LINE
5
414
100
AcDbEntity
8
0
100
AcDbLine
10
139.03500000000003
20
100
30
0
11
139.03500000000003
21
0
31
0
0
LINE
5
415
100
AcDbEntity
8
0
100
AcDbLine
10
140.70400000000001
20
100
30
0
11
140.70400000000001
21
0
31
0
0
LINE
5
416
100
AcDbEntity
8
0
100
AcDbLine
10
250.37300000000002
20
100
30
0
11
250.37300000000002
21
0
31
0
0
LINE
5
417
100
AcDbEntity
8
0
100
AcDbLine
10
252.04200000000003
20
100
30
0
11
252.04200000000003
21
0
31
0
0
LINE
5
418
100
AcDbEntity
8
0
100
AcDbLine
10
253.71100000000001
20
100
30
0
11
253.71100000000001
21
0
31
0
0
LINE
5
419
100
AcDbEntity
8
0
100
AcDbLine
10
255.38000000000005
20
100
30
0
11
255.38000000000005
21
0
31
0
0
LINE
5
420
100
AcDbEntity
8
0
100
AcDbLine
10
257.04900000000004
20
100
30
0
11
257.04900000000004
21
0
31
0
0
LINE
5
421
100
AcDbEntity
8
0
100
AcDbLine
10
258.71800000000002
20
100
30
0
11
258.71800000000002
21
0
31
0
0
LINE
5
422
100
AcDbEntity
8
0
100
AcDbLine
10
260.387
20
100
30
0
11
260.387
21
0
31
0
0
LINE
5
423
100
AcDbEntity
8
0
100
AcDbLine
10
262.05600000000004
20
100
30
0
11
262.05600000000004
21
0
31
0
0
LINE
5
424
100
AcDbEntity
8
0
100
AcDbLine
10
323.72500000000002
20
100
30
0
11
323.72500000000002
21
1.7763568394002505e-14
31
0
0
LINE
5
425
100
AcDbEntity
8
0
100
AcDbLine
10
325.39400000000001
20
100
30
0
11
325.39400000000001
21
1.7763568394002505e-14
31
0
0
LINE
5
426
100
AcDbEntity
8
0
100
AcDbLine
10
327.06300000000005
20
100
30
0
11
327.06300000000005
21
1.7763568394002505e-14
31
0
0
LINE
5
427
100
AcDbEntity
8
0
100
AcDbLine
10
328.73200000000003
20
100
30
0
11
328.73200000000003
21
1.7763568394002505e-14
31
0
0
LINE
5
428
100
AcDbEntity
8
0
100
AcDbLine
10
330.40100000000001
20
100
30
0
11
330.40100000000001
21
1.7763568394002505e-14
31
0
0
LINE
5
429
100
AcDbEntity
8
0
100
AcDbLine
10
332.06999999999999
20
100
30
0
11
332.06999999999999
21
1.7763568394002505e-14
31
0
0
LINE
5
430
100
AcDbEntity
8
0
100
AcDbLine
10
333.73900000000003
20
100
30
0
11
333.73900000000003
21
1.7763568394002505e-14
31
0
0
LINE
5
431
100
AcDbEntity
8
0
100
AcDbLine
10
335.40800000000002
20
100
30
0
11
335.40800000000002
21
1.7763568394002505e-14
31
0
0
LINE
5
432
100
AcDbEntity
8
0
100
AcDbLine
10
54
20
0
30
0
11
54
21
100
31
0
0
LINE
5
433
100
AcDbEntity
8
0
100
AcDbLine
10
127.352
20
1.7763568394002505e-14
30
0
11
127.352
21
100.00000000000001
31
0
0
LINE
5
434
100
AcDbEntity
8
0
100
AcDbLine
10
248.70400000000004
20
0
30
0
11
248.70400000000004
21
100
31
0
0
LINE
5
435
100
AcDbEntity
8
0
100
AcDbLine
10
322.05600000000004
20
0
30
0
11
322.05600000000004
21
99.999999999999986
31
0
0
LINE
5
436
100
AcDbEntity
8
0
100
AcDbLine
10
166.13446712875367
20
58.622100353240938
30
0
11
166.13446712875367
21
60.70259213447568
31
0
0
LINE
5
437
100
AcDbEntity
8
0
100
AcDbLine
10
166.13446712875367
20
60.70259213447568
30
0
11
170.90936661148072
21
60.70259213447568
31
0
0
LINE
5
438
100
AcDbEntity
8
0
100
AcDbLine
10
170.90936661148072
20
60.70259213447568
30
0
11
170.90936661148072
21
56.439290046691866
31
0
0
SPLINE
5
439
100
AcDbEntity
8
0
100
AcDbSpline
70
0
71
2
72
6
73
3
74
0
42
0.000000001
43
0.0000000001
44
0.0000000001
40
0
40
0
40
0
40
1
40
1
40
1
10
170.90936661148072
20
56.439290046691866
30
0
10
169.53828812026978
20
55.504775047302218
30
0
10
168.48098755264283
20
55.163711309432955
30
0
0
SPLINE
5
440
100
AcDbEntity
8
0
100
AcDbSpline
70
0
71
2
72
6
73
3
74
0
42
0.000000001
43
0.0000000001
44
0.0000000001
40
0
40
0
40
0
40
1
40
1
40
1
10
168.48098755264283
20
55.163711309432955
30
0
10
167.43051052474976
20
54.829467535018892
30
0
10
165.98439932250977
20
54.829467535018892
30
0
0
SPLINE
5
441
100
AcDbEntity
8
0
100
AcDbSpline
70
0
71
2
72
6
73
3
74
0
42
0.000000001
43
0.0000000001
44
0.0000000001
40
0
40
0
40
0
40
1
40
1
40
1
10
165.98439932250977
20
54.829467535018892
30
0
10
164.20404434585572
20
54.829467535018892
30
0
10
163.07853222274781
20
55.436562299728365
30
0
0
SPLINE
5
442
100
AcDbEntity
8
0
100
AcDbSpline
70
0
71
2
72
6
73
3
74
0
42
0.000000001
43
0.0000000001
44
0.0000000001
40
0
40
0
40
0
40
1
40
1
40
1
10
163.07853222274781
20
55.436562299728365
30
0
10
161.95984363937379
20
56.043655872344942
30
0
10
161.33910656356812
20
57.244201898574801
30
0
0
SPLINE
5
443
100
AcDbEntity
8
0
100
AcDbSpline
70
0
71
2
72
6
73
3
74
0
42
0.000000001
43
0.0000000001
44
0.0000000001
40
0
40
0
40
0
40
1
40
1
40
1
10
161.33910656356812
20
57.244201898574801
30
0
10
160.72519064331055
20
58.444747924804659
30
0
10
160.72519064331055
20
59.999999999999972
30
0
0
SPLINE
5
444
100
AcDbEntity
8
0
100
AcDbSpline
70
0
71
2
72
6
73
3
74
0
42
0.000000001
43
0.0000000001
44
0.0000000001
40
0
40
0
40
0
40
1
40
1
40
1
10
160.72519064331055
20
59.999999999999972
30
0
10
160.72519064331055
20
61.637107729911776
30
0
10
161.40049696350098
20
62.844474315643282
30
0
0
SPLINE
5
445
100
AcDbEntity
8
0
100
AcDbSpline
70
0
71
2
72
6
73
3
74
0
42
0.000000001
43
0.0000000001
44
0.0000000001
40
0
40
0
40
0
40
1
40
1
40
1
10
161.40049696350098
20
62.844474315643282
30
0
10
162.0758056678772
20
64.058662652969332
30
0
10
163.37867021942139
20
64.686220288276644
30
0
0
SPLINE
5
446
100
AcDbEntity
8
0
100
AcDbSpline
70
0
71
2
72
6
73
3
74
0
42
0.000000001
43
0.0000000001
44
0.0000000001
40
0
40
0
40
0
40
1
40
1
40
1
10
163.37867021942139
20
64.686220288276644
30
0
10
164.39504146957398
20
65.170531272888155
30
0
10
166.11400366210938
20
65.170531272888155
30
0
0
SPLINE
5
447
100
AcDbEntity
8
0
100
AcDbSpline
70
0
71
2
72
6
73
3
74
0
42
0.000000001
43
0.0000000001
44
0.0000000001
40
0
40
0
40
0
40
1
40
1
40
1
10
166.11400366210938
20
65.170531272888155
30
0
10
167.77157545471192
20
65.170531272888155
30
0
10
168.59013080978394
20
64.870395064353914
30
0
0
SPLINE
5
448
100
AcDbEntity
8
0
100
AcDbSpline
70
0
71
2
72
6
73
3
74
0
42
0.000000001
43
0.0000000001
44
0.0000000001
40
0
40
0
40
0
40
1
40
1
40
1
10
168.59013080978394
20
64.870395064353914
30
0
10
169.41550493621827
20
64.570258855819674
30
0
10
169.95438576126099
20
63.935879468917818
30
0
0
SPLINE
5
449
100
AcDbEntity
8
0
100
AcDbSpline
70
0
71
2
72
6
73
3
74
0
42
0.000000001
43
0.0000000001
44
0.0000000001
40
0
40
0
40
0
40
1
40
1
40
1
10
169.95438576126099
20
63.935879468917818
30
0
10
170.50008774185181
20
63.308321833610506
30
0
10
170.77293873214722
20
62.339699268341036
30
0
0
LINE
5
450
100
AcDbEntity
8
0
100
AcDbLine
10
170.77293873214722
20
62.339699268341036
30
0
11
167.79203892135621
21
61.807639598846407
31
0
0
SPLINE
5
451
100
AcDbEntity
8
0
100
AcDbSpline
70
0
71
2
72
6
73
3
74
0
42
0.000000001
43
0.0000000001
44
0.0000000001
40
0
40
0
40
0
40
1
40
1
40
1
10
167.79203892135621
20
61.807639598846407
30
0
10
167.60786533737183
20
62.373805642127962
30
0
10
167.16448069000245
20
62.673942446708651
30
0
0
SPLINE
5
452
100
AcDbEntity
8
0
100
AcDbSpline
70
0
71
2
72
6
73
3
74
0
42
0.000000001
43
0.0000000001
44
0.0000000001
40
0
40
0
40
0
40
1
40
1
40
1
10
167.16448069000245
20
62.673942446708651
30
0
10
166.72791958236695
20
62.974078655242892
30
0
10
166.04578972244263
20
62.974078655242892
30
0
0
SPLINE
5
453
100
AcDbEntity
8
0
100
AcDbSpline
70
0
71
2
72
6
73
3
74
0
42
0.000000001
43
0.0000000001
44
0.0000000001
40
0
40
0
40
0
40
1
40
1
40
1
10
166.04578972244263
20
62.974078655242892
30
0
10
165.02942085647584
20
62.974078655242892
30
0
10
164.42232609176637
20
62.264665365219088
30
0
0
SPLINE
5
454
100
AcDbEntity
8
0
100
AcDbSpline
70
0
71
2
72
6
73
3
74
0
42
0.000000001
43
0.0000000001
44
0.0000000001
40
0
40
0
40
0
40
1
40
1
40
1
10
164.42232609176637
20
62.264665365219088
30
0
10
163.82205248260499
20
61.56207323074338
30
0
10
163.82205248260499
20
60.03410577774045
30
0
0
SPLINE
5
455
100
AcDbEntity
8
0
100
AcDbSpline
70
0
71
2
72
6
73
3
74
0
42
0.000000001
43
0.0000000001
44
0.0000000001
40
0
40
0
40
0
40
1
40
1
40
1
10
163.82205248260499
20
60.03410577774045
30
0
10
163.82205248260499
20
58.410640954971285
30
0
10
164.42914724731446
20
57.714869976043673
30
0
0
SPLINE
5
456
100
AcDbEntity
8
0
100
AcDbSpline
70
0
71
2
72
6
73
3
74
0
42
0.000000001
43
0.0000000001
44
0.0000000001
40
0
40
0
40
0
40
1
40
1
40
1
10
164.42914724731446
20
57.714869976043673
30
0
10
165.04306316757203
20
57.01909899711606
30
0
10
166.13446712875367
20
57.01909899711606
30
0
0
SPLINE
5
457
100
AcDbEntity
8
0
100
AcDbSpline
70
0
71
2
72
6
73
3
74
0
42
0.000000001
43
0.0000000001
44
0.0000000001
40
0
40
0
40
0
40
1
40
1
40
1
10
166.13446712875367
20
57.01909899711606
30
0
10
166.65288448715211
20
57.01909899711606
30
0
10
167.12355375671387
20
57.169167995452852
30
0
0
SPLINE
5
458
100
AcDbEntity
8
0
100
AcDbSpline
70
0
71
2
72
6
73
3
74
0
42
0.000000001
43
0.0000000001
44
0.0000000001
40
0
40
0
40
0
40
1
40
1
40
1
10
167.12355375671387
20
57.169167995452852
30
0
10
167.59422302627564
20
57.319235801696749
30
0
10
168.20131779098512
20
57.680764198303194
30
0
0
LINE
5
459
100
AcDbEntity
8
0
100
AcDbLine
10
168.20131779098512
20
57.680764198303194
30
0
11
168.20131779098512
21
58.622100353240938
31
0
0
LINE
5
460
100
AcDbEntity
8
0
100
AcDbLine
10
168.20131779098512
20
58.622100353240938
30
0
11
166.13446712875367
21
58.622100353240938
31
0
0
LINE
5
461
100
AcDbEntity
8
0
100
AcDbLine
10
172.58740187072755
20
62.244201898574801
30
0
11
175.18630981826783
21
62.244201898574801
31
0
0
LINE
5
462
100
AcDbEntity
8
0
100
AcDbLine
10
175.18630981826783
20
62.244201898574801
30
0
11
175.18630981826783
21
61.057298779487581
31
0
0
SPLINE
5
463
100
AcDbEntity
8
0
100
AcDbSpline
70
0
71
2
72
6
73
3
74
0
42
0.000000001
43
0.0000000001
44
0.0000000001
40
0
40
0
40
0
40
1
40
1
40
1
10
175.18630981826783
20
61.057298779487581
30
0
10
175.56148052597047
20
61.828103661537142
30
0
10
175.95711470031739
20
62.114597558975191
30
0
0
SPLINE
5
464
100
AcDbEntity
8
0
100
AcDbSpline
70
0
71
2
72
6
73
3
74
0
42
0.000000001
43
0.0000000001
44
0.0000000001
40
0
40
0
40
0
40
1
40
1
40
1
10
175.95711470031739
20
62.114597558975191
30
0
10
176.35957003021241
20
62.407912611961336
30
0
10
176.9462013282776
20
62.407912611961336
30
0
0
SPLINE
5
465
100
AcDbEntity
8
0
100
AcDbSpline
70
0
71
2
72
6
73
3
74
0
42
0.000000001
43
0.0000000001
44
0.0000000001
40
0
40
0
40
0
40
1
40
1
40
1
10
176.9462013282776
20
62.407912611961336
30
0
10
177.56011724853516
20
62.407912611961336
30
0
10
178.28999281311036
20
62.025920748710604
30
0
0
LINE
5
466
100
AcDbEntity
8
0
100
AcDbLine
10
178.28999281311036
20
62.025920748710604
30
0
11
177.43051290893555
21
60.047749280929537
31
0
0
SPLINE
5
467
100
AcDbEntity
8
0
100
AcDbSpline
70
0
71
2
72
6
73
3
74
0
42
0.000000001
43
0.0000000001
44
0.0000000001
40
0
40
0
40
0
40
1
40
1
40
1
10
177.43051290893555
20
60.047749280929537
30
0
10
176.9393801727295
20
60.252387523651095
30
0
10
176.65288448715211
20
60.252387523651095
30
0
0
SPLINE
5
468
100
AcDbEntity
8
0
100
AcDbSpline
70
0
71
2
72
6
73
3
74
0
42
0.000000001
43
0.0000000001
44
0.0000000001
40
0
40
0
40
0
40
1
40
1
40
1
10
176.65288448715211
20
60.252387523651095
30
0
10
176.10718250656129
20
60.252387523651095
30
0
10
175.80704689407349
20
59.80218291282651
30
0
0
SPLINE
5
469
100
AcDbEntity
8
0
100
AcDbSpline
70
0
71
2
72
6
73
3
74
0
42
0.000000001
43
0.0000000001
44
0.0000000001
40
0
40
0
40
0
40
1
40
1
40
1
10
175.80704689407349
20
59.80218291282651
30
0
10
175.37730694198609
20
59.167803525924654
30
0
10
175.37730694198609
20
57.428376674652071
30
0
0
LINE
5
470
100
AcDbEntity
8
0
100
AcDbLine
10
175.37730694198609
20
57.428376674652071
30
0
11
175.37730694198609
21
54.999999999999972
31
0
0
LINE
5
471
100
AcDbEntity
8
0
100
AcDbLine
10
175.37730694198609
20
54.999999999999972
30
0
11
172.58740187072755
21
54.999999999999972
31
0
0
LINE
5
472
100
AcDbEntity
8
0
100
AcDbLine
10
172.58740187072755
20
54.999999999999972
30
0
11
172.58740187072755
21
62.244201898574801
31
0
0
SPLINE
5
473
100
AcDbEntity
8
0
100
AcDbSpline
70
0
71
2
72
6
73
3
74
0
42
0.000000001
43
0.0000000001
44
0.0000000001
40
0
40
0
40
0
40
1
40
1
40
1
10
178.41959715270997
20
58.601636886596651
30
0
10
178.41959715270997
20
60.25920867919919
30
0
10
179.53828812026978
20
61.330149769782992
30
0
0
SPLINE
5
474
100
AcDbEntity
8
0
100
AcDbSpline
70
0
71
2
72
6
73
3
74
0
42
0.000000001
43
0.0000000001
44
0.0000000001
40
0
40
0
40
0
40
1
40
1
40
1
10
179.53828812026978
20
61.330149769782992
30
0
10
180.65697670364381
20
62.407912611961336
30
0
10
182.56011486434937
20
62.407912611961336
30
0
0
SPLINE
5
475
100
AcDbEntity
8
0
100
AcDbSpline
70
0
71
2
72
6
73
3
74
0
42
0.000000001
43
0.0000000001
44
0.0000000001
40
0
40
0
40
0
40
1
40
1
40
1
10
182.56011486434937
20
62.407912611961336
30
0
10
184.73610401535035
20
62.407912611961336
30
0
10
185.84797382736207
20
61.145974993705721
30
0
0
SPLINE
5
476
100
AcDbEntity
8
0
100
AcDbSpline
70
0
71
2
72
6
73
3
74
0
42
0.000000001
43
0.0000000001
44
0.0000000001
40
0
40
0
40
0
40
1
40
1
40
1
10
185.84797382736207
20
61.145974993705721
30
0
10
186.74156189346314
20
60.129604339599581
30
0
10
186.74156189346314
20
58.642565011978121
30
0
0
SPLINE
5
477
100
AcDbEntity
8
0
100
AcDbSpline
70
0
71
2
72
6
73
3
74
0
42
0.000000001
43
0.0000000001
44
0.0000000001
40
0
40
0
40
0
40
1
40
1
40
1
10
186.74156189346314
20
58.642565011978121
30
0
10
186.74156189346314
20
56.971350908279391
30
0
10
185.62969208145142
20
55.900409221649142
30
0
0
SPLINE
5
478
100
AcDbEntity
8
0
100
AcDbSpline
70
0
71
2
72
6
73
3
74
0
42
0.000000001
43
0.0000000001
44
0.0000000001
40
0
40
0
40
0
40
1
40
1
40
1
10
185.62969208145142
20
55.900409221649142
30
0
10
184.52464580917359
20
54.836288690566988
30
0
10
182.56693840408326
20
54.836288690566988
30
0
0
SPLINE
5
479
100
AcDbEntity
8
0
100
AcDbSpline
70
0
71
2
72
6
73
3
74
0
42
0.000000001
43
0.0000000001
44
0.0000000001
40
0
40
0
40
0
40
1
40
1
40
1
10
182.56693840408326
20
54.836288690566988
30
0
10
180.82068920516969
20
54.836288690566988
30
0
10
179.74292755508424
20
55.723055601119967
30
0
0
SPLINE
5
480
100
AcDbEntity
8
0
100
AcDbSpline
70
0
71
2
72
6
73
3
74
0
42
0.000000001
43
0.0000000001
44
0.0000000001
40
0
40
0
40
0
40
1
40
1
40
1
10
179.74292755508424
20
55.723055601119967
30
0
10
178.41959715270997
20
56.821281909942599
30
0
10
178.41959715270997
20
58.601636886596651
30
0
0
SPLINE
5
481
100
AcDbEntity
8
0
100
AcDbSpline
70
0
71
2
72
6
73
3
74
0
42
0.000000001
43
0.0000000001
44
0.0000000001
40
0
40
0
40
0
40
1
40
1
40
1
10
181.20267868423463
20
58.608458042144747
30
0
10
181.20267868423463
20
57.639836072921725
30
0
10
181.59149170303345
20
57.175989151000948
30
0
0
SPLINE
5
482
100
AcDbEntity
8
0
100
AcDbSpline
70
0
71
2
72
6
73
3
74
0
42
0.000000001
43
0.0000000001
44
0.0000000001
40
0
40
0
40
0
40
1
40
1
40
1
10
181.59149170303345
20
57.175989151000948
30
0
10
181.98712826156617
20
56.712142229080172
30
0
10
182.58058071517945
20
56.712142229080172
30
0
0
SPLINE
5
483
100
AcDbEntity
8
0
100
AcDbSpline
70
0
71
2
72
6
73
3
74
0
42
0.000000001
43
0.0000000001
44
0.0000000001
40
0
40
0
40
0
40
1
40
1
40
1
10
182.58058071517945
20
56.712142229080172
30
0
10
183.18085194015504
20
56.712142229080172
30
0
10
183.56284141921998
20
57.169167995452852
30
0
0
SPLINE
5
484
100
AcDbEntity
8
0
100
AcDbSpline
70
0
71
2
72
6
73
3
74
0
42
0.000000001
43
0.0000000001
44
0.0000000001
40
0
40
0
40
0
40
1
40
1
40
1
10
183.56284141921998
20
57.169167995452852
30
0
10
183.95165443801881
20
57.626193761825533
30
0
10
183.95165443801881
20
58.635743856430025
30
0
0
SPLINE
5
485
100
AcDbEntity
8
0
100
AcDbSpline
70
0
71
2
72
6
73
3
74
0
42
0.000000001
43
0.0000000001
44
0.0000000001
40
0
40
0
40
0
40
1
40
1
40
1
10
183.95165443801881
20
58.635743856430025
30
0
10
183.95165443801881
20
59.577081203460665
30
0
10
183.56284141921998
20
60.03410577774045
30
0
0
SPLINE
5
486
100
AcDbEntity
8
0
100
AcDbSpline
70
0
71
2
72
6
73
3
74
0
42
0.000000001
43
0.0000000001
44
0.0000000001
40
0
40
0
40
0
40
1
40
1
40
1
10
183.56284141921998
20
60.03410577774045
30
0
10
183.17402840042115
20
60.497953295707674
30
0
10
182.60104179763795
20
60.497953295707674
30
0
0
SPLINE
5
487
100
AcDbEntity
8
0
100
AcDbSpline
70
0
71
2
72
6
73
3
74
0
42
0.000000001
43
0.0000000001
44
0.0000000001
40
0
40
0
40
0
40
1
40
1
40
1
10
182.60104179763795
20
60.497953295707674
30
0
10
181.99395180130006
20
60.497953295707674
30
0
10
181.59831524276734
20
60.027284622192354
30
0
0
SPLINE
5
488
100
AcDbEntity
8
0
100
AcDbSpline
70
0
71
2
72
6
73
3
74
0
42
0.000000001
43
0.0000000001
44
0.0000000001
40
0
40
0
40
0
40
1
40
1
40
1
10
181.59831524276734
20
60.027284622192354
30
0
10
181.20267868423463
20
59.563437700271578
30
0
10
181.20267868423463
20
58.608458042144747
30
0
0
LINE
5
489
100
AcDbEntity
8
0
100
AcDbLine
10
195.71154594802857
20
54.999999999999972
30
0
11
193.11945915603638
21
54.999999999999972
31
0
0
LINE
5
490
100
AcDbEntity
8
0
100
AcDbLine
10
193.11945915603638
20
54.999999999999972
30
0
11
193.11945915603638
21
56.173260211944552
31
0
0
SPLINE
5
491
100
AcDbEntity
8
0
100
AcDbSpline
70
0
71
2
72
6
73
3
74
0
42
0.000000001
43
0.0000000001
44
0.0000000001
40
0
40
0
40
0
40
1
40
1
40
1
10
193.11945915603638
20
56.173260211944552
30
0
10
192.53965378189088
20
55.450204610824557
30
0
10
191.9462013282776
20
55.143246650695772
30
0
0
SPLINE
5
492
100
AcDbEntity
8
0
100
AcDbSpline
70
0
71
2
72
6
73
3
74
0
42
0.000000001
43
0.0000000001
44
0.0000000001
40
0
40
0
40
0
40
1
40
1
40
1
10
191.9462013282776
20
55.143246650695772
30
0
10
191.35956764602662
20
54.836288690566988
30
0
10
190.50008774185181
20
54.836288690566988
30
0
0
SPLINE
5
493
100
AcDbEntity
8
0
100
AcDbSpline
70
0
71
2
72
6
73
3
74
0
42
0.000000001
43
0.0000000001
44
0.0000000001
40
0
40
0
40
0
40
1
40
1
40
1
10
190.50008774185181
20
54.836288690566988
30
0
10
189.35411453628541
20
54.836288690566988
30
0
10
188.69927406692506
20
55.518417358398409
30
0
0
SPLINE
5
494
100
AcDbEntity
8
0
100
AcDbSpline
70
0
71
2
72
6
73
3
74
0
42
0.000000001
43
0.0000000001
44
0.0000000001
40
0
40
0
40
0
40
1
40
1
40
1
10
188.69927406692506
20
55.518417358398409
30
0
10
188.05125236892701
20
56.207367181777926
30
0
10
188.05125236892701
20
57.633014917373629
30
0
0
LINE
5
495
100
AcDbEntity
8
0
100
AcDbLine
10
188.05125236892701
20
57.633014917373629
30
0
11
188.05125236892701
21
62.244201898574801
31
0
0
LINE
5
496
100
AcDbEntity
8
0
100
AcDbLine
10
188.05125236892701
20
62.244201898574801
30
0
11
190.84115028762818
21
62.244201898574801
31
0
0
LINE
5
497
100
AcDbEntity
8
0
100
AcDbLine
10
190.84115028762818
20
62.244201898574801
30
0
11
190.84115028762818
21
58.260573148727389
31
0
0
SPLINE
5
498
100
AcDbEntity
8
0
100
AcDbSpline
70
0
71
2
72
6
73
3
74
0
42
0.000000001
43
0.0000000001
44
0.0000000001
40
0
40
0
40
0
40
1
40
1
40
1
10
190.84115028762818
20
58.260573148727389
30
0
10
190.84115028762818
20
57.578444480895968
30
0
10
191.0935401954651
20
57.291951179504366
30
0
0
SPLINE
5
499
100
AcDbEntity
8
0
100
AcDbSpline
70
0
71
2
72
6
73
3
74
0
42
0.000000001
43
0.0000000001
44
0.0000000001
40
0
40
0
40
0
40
1
40
1
40
1
10
191.0935401954651
20
57.291951179504366
30
0
10
191.34593010330201
20
57.005456686019869
30
0
10
191.80295467758179
20
57.005456686019869
30
0
0
SPLINE
5
500
100
AcDbEntity
8
0
100
AcDbSpline
70
0
71
2
72
6
73
3
74
0
42
0.000000001
43
0.0000000001
44
0.0000000001
40
0
40
0
40
0
40
1
40
1
40
1
10
191.80295467758179
20
57.005456686019869
30
0
10
192.30091095352174
20
57.005456686019869
30
0
10
192.61468887710572
20
57.387448549270601
30
0
0
SPLINE
5
501
100
AcDbEntity
8
0
100
AcDbSpline
70
0
71
2
72
6
73
3
74
0
42
0.000000001
43
0.0000000001
44
0.0000000001
40
0
40
0
40
0
40
1
40
1
40
1
10
192.61468887710572
20
57.387448549270601
30
0
10
192.93528557205201
20
57.769440412521334
30
0
10
192.93528557205201
20
58.758527040481539
30
0
0
LINE
5
502
100
AcDbEntity
8
0
100
AcDbLine
10
192.93528557205201
20
58.758527040481539
30
0
11
192.93528557205201
21
62.244201898574801
31
0
0
LINE
5
503
100
AcDbEntity
8
0
100
AcDbLine
10
192.93528557205201
20
62.244201898574801
30
0
11
195.71154594802857
21
62.244201898574801
31
0
0
LINE
5
504
100
AcDbEntity
8
0
100
AcDbLine
10
195.71154594802857
20
62.244201898574801
30
0
11
195.71154594802857
21
54.999999999999972
31
0
0
LINE
5
505
100
AcDbEntity
8
0
100
AcDbLine
10
197.41004944229127
20
52.244201898574801
30
0
11
197.41004944229127
21
62.244202494621248
31
0
0
LINE
5
506
100
AcDbEntity
8
0
100
AcDbLine
10
197.41004944229127
20
62.244202494621248
30
0
11
200.00895500564576
21
62.244202494621248
31
0
0
LINE
5
507
100
AcDbEntity
8
0
100
AcDbLine
10
200.00895500564576
20
62.244202494621248
30
0
11
200.00895500564576
21
61.173260807990999
31
0
0
SPLINE
5
508
100
AcDbEntity
8
0
100
AcDbSpline
70
0
71
2
72
6
73
3
74
0
42
0.000000001
43
0.0000000001
44
0.0000000001
40
0
40
0
40
0
40
1
40
1
40
1
10
200.00895500564576
20
61.173260807990999
30
0
10
200.54783821487428
20
61.848567724227877
30
0
10
200.99804401779176
20
62.087312936782808
30
0
0
SPLINE
5
509
100
AcDbEntity
8
0
100
AcDbSpline
70
0
71
2
72
6
73
3
74
0
42
0.000000001
43
0.0000000001
44
0.0000000001
40
0
40
0
40
0
40
1
40
1
40
1
10
200.99804401779176
20
62.087312936782808
30
0
10
201.60513878250123
20
62.407913208007784
30
0
10
202.34183788681031
20
62.407913208007784
30
0
0
SPLINE
5
510
100
AcDbEntity
8
0
100
AcDbSpline
70
0
71
2
72
6
73
3
74
0
42
0.000000001
43
0.0000000001
44
0.0000000001
40
0
40
0
40
0
40
1
40
1
40
1
10
202.34183788681031
20
62.407913208007784
30
0
10
203.7947702445984
20
62.407913208007784
30
0
10
204.58603859329224
20
61.296043992042513
30
0
0
SPLINE
5
511
100
AcDbEntity
8
0
100
AcDbSpline
70
0
71
2
72
6
73
3
74
0
42
0.000000001
43
0.0000000001
44
0.0000000001
40
0
40
0
40
0
40
1
40
1
40
1
10
204.58603859329224
20
61.296043992042513
30
0
10
205.38413048171998
20
60.184174776077242
30
0
10
205.38413048171998
20
58.547067642211886
30
0
0
SPLINE
5
512
100
AcDbEntity
8
0
100
AcDbSpline
70
0
71
2
72
6
73
3
74
0
42
0.000000001
43
0.0000000001
44
0.0000000001
40
0
40
0
40
0
40
1
40
1
40
1
10
205.38413048171998
20
58.547067642211886
30
0
10
205.38413048171998
20
56.739426851272555
30
0
10
204.5178222694397
20
55.784447193145724
30
0
0
SPLINE
5
513
100
AcDbEntity
8
0
100
AcDbSpline
70
0
71
2
72
6
73
3
74
0
42
0.000000001
43
0.0000000001
44
0.0000000001
40
0
40
0
40
0
40
1
40
1
40
1
10
204.5178222694397
20
55.784447193145724
30
0
10
203.6515235939026
20
54.836288690566988
30
0
10
202.32819557571412
20
54.836288690566988
30
0
0
SPLINE
5
514
100
AcDbEntity
8
0
100
AcDbSpline
70
0
71
2
72
6
73
3
74
0
42
0.000000001
43
0.0000000001
44
0.0000000001
40
0
40
0
40
0
40
1
40
1
40
1
10
202.32819557571412
20
54.836288690566988
30
0
10
201.68699264907838
20
54.836288690566988
30
0
10
201.15493297958375
20
55.054570436477633
30
0
0
SPLINE
5
515
100
AcDbEntity
8
0
100
AcDbSpline
70
0
71
2
72
6
73
3
74
0
42
0.000000001
43
0.0000000001
44
0.0000000001
40
0
40
0
40
0
40
1
40
1
40
1
10
201.15493297958375
20
55.054570436477633
30
0
10
200.62969208145142
20
55.272850990295382
30
0
10
200.21359444046021
20
55.70259213447568
30
0
0
LINE
5
516
100
AcDbEntity
8
0
100
AcDbLine
10
200.21359444046021
20
55.70259213447568
30
0
11
200.21359444046021
21
52.244201898574801
31
0
0
LINE
5
517
100
AcDbEntity
8
0
100
AcDbLine
10
200.21359444046021
20
52.244201898574801
30
0
11
197.41004944229127
21
52.244201898574801
31
0
0
SPLINE
5
518
100
AcDbEntity
8
0
100
AcDbSpline
70
0
71
2
72
6
73
3
74
0
42
0.000000001
43
0.0000000001
44
0.0000000001
40
0
40
0
40
0
40
1
40
1
40
1
10
200.19313335800172
20
58.601636886596651
30
0
10
200.19313335800172
20
57.742155790328951
30
0
10
200.55466175460816
20
57.326056957244845
30
0
0
SPLINE
5
519
100
AcDbEntity
8
0
100
AcDbSpline
70
0
71
2
72
6
73
3
74
0
42
0.000000001
43
0.0000000001
44
0.0000000001
40
0
40
0
40
0
40
1
40
1
40
1
10
200.55466175460816
20
57.326056957244845
30
0
10
200.91618538284303
20
56.909959316253634
30
0
10
201.46871090316773
20
56.909959316253634
30
0
0
SPLINE
5
520
100
AcDbEntity
8
0
100
AcDbSpline
70
0
71
2
72
6
73
3
74
0
42
0.000000001
43
0.0000000001
44
0.0000000001
40
0
40
0
40
0
40
1
40
1
40
1
10
201.46871090316773
20
56.909959316253634
30
0
10
201.9530200996399
20
56.909959316253634
30
0
10
202.28044510269166
20
57.305593490600558
30
0
0
SPLINE
5
521
100
AcDbEntity
8
0
100
AcDbSpline
70
0
71
2
72
6
73
3
74
0
42
0.000000001
43
0.0000000001
44
0.0000000001
40
0
40
0
40
0
40
1
40
1
40
1
10
202.28044510269166
20
57.305593490600558
30
0
10
202.60786533737183
20
57.708048820495577
30
0
10
202.60786533737183
20
58.663029670715304
30
0
0
SPLINE
5
522
100
AcDbEntity
8
0
100
AcDbSpline
70
0
71
2
72
6
73
3
74
0
42
0.000000001
43
0.0000000001
44
0.0000000001
40
0
40
0
40
0
40
1
40
1
40
1
10
202.60786533737183
20
58.663029670715304
30
0
10
202.60786533737183
20
59.542974233627291
30
0
10
202.26680279159547
20
59.952251911163302
30
0
0
SPLINE
5
523
100
AcDbEntity
8
0
100
AcDbSpline
70
0
71
2
72
6
73
3
74
0
42
0.000000001
43
0.0000000001
44
0.0000000001
40
0
40
0
40
0
40
1
40
1
40
1
10
202.26680279159547
20
59.952251911163302
30
0
10
201.92573547744752
20
60.368349552154513
30
0
10
201.43460274124146
20
60.368349552154513
30
0
0
SPLINE
5
524
100
AcDbEntity
8
0
100
AcDbSpline
70
0
71
2
72
6
73
3
74
0
42
0.000000001
43
0.0000000001
44
0.0000000001
40
0
40
0
40
0
40
1
40
1
40
1
10
201.43460274124146
20
60.368349552154513
30
0
10
200.90254307174683
20
60.368349552154513
30
0
10
200.54783821487428
20
59.952251911163302
30
0
0
SPLINE
5
525
100
AcDbEntity
8
0
100
AcDbSpline
70
0
71
2
72
6
73
3
74
0
42
0.000000001
43
0.0000000001
44
0.0000000001
40
0
40
0
40
0
40
1
40
1
40
1
10
200.54783821487428
20
59.952251911163302
30
0
10
200.19313335800172
20
59.536153078079195
30
0
10
200.19313335800172
20
58.601636886596651
30
0
0
LINE
5
526
100
AcDbEntity
8
0
100
AcDbLine
10
217.40323067092896
20
65.170532464981051
30
0
11
217.40323067092896
21
54.999999999999972
31
0
0
LINE
5
527
100
AcDbEntity
8
0
100
AcDbLine
10
217.40323067092896
20
54.999999999999972
30
0
11
214.59286213302613
21
54.999999999999972
31
0
0
LINE
5
528
100
AcDbEntity
8
0
100
AcDbLine
10
214.59286213302613
20
54.999999999999972
30
0
11
214.59286213302613
21
61.664392948150606
31
0
0
SPLINE
5
529
100
AcDbEntity
8
0
100
AcDbSpline
70
0
71
2
72
6
73
3
74
0
42
0.000000001
43
0.0000000001
44
0.0000000001
40
0
40
0
40
0
40
1
40
1
40
1
10
214.59286213302613
20
61.664392948150606
30
0
10
213.91073227310181
20
61.145975589752169
30
0
10
213.26952934646607
20
60.825375318527193
30
0
0
SPLINE
5
530
100
AcDbEntity
8
0
100
AcDbSpline
70
0
71
2
72
6
73
3
74
0
42
0.000000001
43
0.0000000001
44
0.0000000001
40
0
40
0
40
0
40
1
40
1
40
1
10
213.26952934646607
20
60.825375318527193
30
0
10
212.63514995956422
20
60.504775047302218
30
0
10
211.67335033798219
20
60.21146059036252
30
0
0
LINE
5
531
100
AcDbEntity
8
0
100
AcDbLine
10
211.67335033798219
20
60.21146059036252
30
0
11
211.67335033798219
21
62.489768266677828
31
0
0
SPLINE
5
532
100
AcDbEntity
8
0
100
AcDbSpline
70
0
71
2
72
6
73
3
74
0
42
0.000000001
43
0.0000000001
44
0.0000000001
40
0
40
0
40
0
40
1
40
1
40
1
10
211.67335033798219
20
62.489768266677828
30
0
10
213.09217930221558
20
62.946794033050509
30
0
10
213.87662411117554
20
63.58799457550046
30
0
0
SPLINE
5
533
100
AcDbEntity
8
0
100
AcDbSpline
70
0
71
2
72
6
73
3
74
0
42
0.000000001
43
0.0000000001
44
0.0000000001
40
0
40
0
40
0
40
1
40
1
40
1
10
213.87662411117554
20
63.58799457550046
30
0
10
214.66107368850709
20
64.229195117950411
30
0
10
215.10445595169068
20
65.170532464981051
30
0
0
LINE
5
534
100
AcDbEntity
8
0
100
AcDbLine
10
215.10445595169068
20
65.170532464981051
30
0
11
217.40323067092896
21
65.170532464981051
31
0
0
LINE
5
535
100
AcDbEntity
8
0
100
AcDbLine
10
228.46734047317506
20
62.748976349830599
30
0
11
225.70472717666627
21
62.407912611961336
31
0
0
SPLINE
5
536
100
AcDbEntity
8
0
100
AcDbSpline
70
0
71
2
72
6
73
3
74
0
42
0.000000001
43
0.0000000001
44
0.0000000001
40
0
40
0
40
0
40
1
40
1
40
1
10
225.70472717666627
20
62.407912611961336
30
0
10
225.59557915115357
20
62.987721562385531
30
0
10
225.33637047195435
20
63.226466178894015
30
0
0
SPLINE
5
537
100
AcDbEntity
8
0
100
AcDbSpline
70
0
71
2
72
6
73
3
74
0
42
0.000000001
43
0.0000000001
44
0.0000000001
40
0
40
0
40
0
40
1
40
1
40
1
10
225.33637047195435
20
63.226466178894015
30
0
10
225.0839901008606
20
63.465210795402498
30
0
10
224.70881462478638
20
63.465210795402498
30
0
0
SPLINE
5
538
100
AcDbEntity
8
0
100
AcDbSpline
70
0
71
2
72
6
73
3
74
0
42
0.000000001
43
0.0000000001
44
0.0000000001
40
0
40
0
40
0
40
1
40
1
40
1
10
224.70881462478638
20
63.465210795402498
30
0
10
224.03351784133912
20
63.465210795402498
30
0
10
223.6583423652649
20
62.783082723617525
30
0
0
SPLINE
5
539
100
AcDbEntity
8
0
100
AcDbSpline
70
0
71
2
72
6
73
3
74
0
42
0.000000001
43
0.0000000001
44
0.0000000001
40
0
40
0
40
0
40
1
40
1
40
1
10
223.6583423652649
20
62.783082723617525
30
0
10
223.38548660659791
20
62.291950583457918
30
0
10
223.2558822669983
20
60.682128071784945
30
0
0
SPLINE
5
540
100
AcDbEntity
8
0
100
AcDbSpline
70
0
71
2
72
6
73
3
74
0
42
0.000000001
43
0.0000000001
44
0.0000000001
40
0
40
0
40
0
40
1
40
1
40
1
10
223.2558822669983
20
60.682128071784945
30
0
10
223.75384331130982
20
61.186903119087191
30
0
10
224.27907944107056
20
61.425647735595675
30
0
0
SPLINE
5
541
100
AcDbEntity
8
0
100
AcDbSpline
70
0
71
2
72
6
73
3
74
0
42
0.000000001
43
0.0000000001
44
0.0000000001
40
0
40
0
40
0
40
1
40
1
40
1
10
224.27907944107056
20
61.425647735595675
30
0
10
224.80431557083131
20
61.671214103698702
30
0
10
225.49326897048951
20
61.671214103698702
30
0
0
SPLINE
5
542
100
AcDbEntity
8
0
100
AcDbSpline
70
0
71
2
72
6
73
3
74
0
42
0.000000001
43
0.0000000001
44
0.0000000001
40
0
40
0
40
0
40
1
40
1
40
1
10
225.49326897048951
20
61.671214103698702
30
0
10
226.8302345314026
20
61.671214103698702
30
0
10
227.75111198806763
20
60.716234445571871
30
0
0
SPLINE
5
543
100
AcDbEntity
8
0
100
AcDbSpline
70
0
71
2
72
6
73
3
74
0
42
0.000000001
43
0.0000000001
44
0.0000000001
40
0
40
0
40
0
40
1
40
1
40
1
10
227.75111198806763
20
60.716234445571871
30
0
10
228.67880821609498
20
59.76125478744504
30
0
10
228.67880821609498
20
58.294678926467867
30
0
0
SPLINE
5
544
100
AcDbEntity
8
0
100
AcDbSpline
70
0
71
2
72
6
73
3
74
0
42
0.000000001
43
0.0000000001
44
0.0000000001
40
0
40
0
40
0
40
1
40
1
40
1
10
228.67880821609498
20
58.294678926467867
30
0
10
228.67880821609498
20
57.305593490600558
30
0
10
228.20813179397584
20
56.487039327621432
30
0
0
SPLINE
5
545
100
AcDbEntity
8
0
100
AcDbSpline
70
0
71
2
72
6
73
3
74
0
42
0.000000001
43
0.0000000001
44
0.0000000001
40
0
40
0
40
0
40
1
40
1
40
1
10
228.20813179397584
20
56.487039327621432
30
0
10
227.74428367996217
20
55.668485164642306
30
0
10
226.91208839797974
20
55.245566368102999
30
0
0
SPLINE
5
546
100
AcDbEntity
8
0
100
AcDbSpline
70
0
71
2
72
6
73
3
74
0
42
0.000000001
43
0.0000000001
44
0.0000000001
40
0
40
0
40
0
40
1
40
1
40
1
10
226.91208839797974
20
55.245566368102999
30
0
10
226.08672142410279
20
54.829467535018892
30
0
10
224.83841896438599
20
54.829467535018892
30
0
0
SPLINE
5
547
100
AcDbEntity
8
0
100
AcDbSpline
70
0
71
2
72
6
73
3
74
0
42
0.000000001
43
0.0000000001
44
0.0000000001
40
0
40
0
40
0
40
1
40
1
40
1
10
224.83841896438599
20
54.829467535018892
30
0
10
223.33773613357545
20
54.829467535018892
30
0
10
222.43050575637818
20
55.341063737869234
30
0
0
SPLINE
5
548
100
AcDbEntity
8
0
100
AcDbSpline
70
0
71
2
72
6
73
3
74
0
42
0.000000001
43
0.0000000001
44
0.0000000001
40
0
40
0
40
0
40
1
40
1
40
1
10
222.43050575637818
20
55.341063737869234
30
0
10
221.52327537918092
20
55.852659940719576
30
0
10
220.97758293533326
20
56.971350908279391
30
0
0
SPLINE
5
549
100
AcDbEntity
8
0
100
AcDbSpline
70
0
71
2
72
6
73
3
74
0
42
0.000000001
43
0.0000000001
44
0.0000000001
40
0
40
0
40
0
40
1
40
1
40
1
10
220.97758293533326
20
56.971350908279391
30
0
10
220.43869972610474
20
58.096861839294405
30
0
10
220.43869972610474
20
59.94542956352231
30
0
0
SPLINE
5
550
100
AcDbEntity
8
0
100
AcDbSpline
70
0
71
2
72
6
73
3
74
0
42
0.000000001
43
0.0000000001
44
0.0000000001
40
0
40
0
40
0
40
1
40
1
40
1
10
220.43869972610474
20
59.94542956352231
30
0
10
220.43869972610474
20
62.653478384017916
30
0
10
221.57784462356568
20
63.908594250678988
30
0
0
SPLINE
5
551
100
AcDbEntity
8
0
100
AcDbSpline
70
0
71
2
72
6
73
3
74
0
42
0.000000001
43
0.0000000001
44
0.0000000001
40
0
40
0
40
0
40
1
40
1
40
1
10
221.57784462356568
20
63.908594250678988
30
0
10
222.71700859451295
20
65.170531272888155
30
0
10
224.73610878372193
20
65.170531272888155
30
0
0
SPLINE
5
552
100
AcDbEntity
8
0
100
AcDbSpline
70
0
71
2
72
6
73
3
74
0
42
0.000000001
43
0.0000000001
44
0.0000000001
40
0
40
0
40
0
40
1
40
1
40
1
10
224.73610878372193
20
65.170531272888155
30
0
10
225.92982292556763
20
65.170531272888155
30
0
10
226.61877632522584
20
64.890859127044649
30
0
0
SPLINE
5
553
100
AcDbEntity
8
0
100
AcDbSpline
70
0
71
2
72
6
73
3
74
0
42
0.000000001
43
0.0000000001
44
0.0000000001
40
0
40
0
40
0
40
1
40
1
40
1
10
226.61877632522584
20
64.890859127044649
30
0
10
227.31454849624635
20
64.618007540702791
30
0
10
227.77157783889771
20
64.085947871208162
30
0
0
SPLINE
5
554
100
AcDbEntity
8
0
100
AcDbSpline
70
0
71
2
72
6
73
3
74
0
42
0.000000001
43
0.0000000001
44
0.0000000001
40
0
40
0
40
0
40
1
40
1
40
1
10
227.77157783889771
20
64.085947871208162
30
0
10
228.22859764480592
20
63.553887605667086
30
0
10
228.46734047317506
20
62.748976349830599
30
0
0
SPLINE
5
555
100
AcDbEntity
8
0
100
AcDbSpline
70
0
71
2
72
6
73
3
74
0
42
0.000000001
43
0.0000000001
44
0.0000000001
40
0
40
0
40
0
40
1
40
1
40
1
10
223.35138321304322
20
58.294678926467867
30
0
10
223.35138321304322
20
57.482945919036837
30
0
10
223.76066208267213
20
57.01909899711606
30
0
0
SPLINE
5
556
100
AcDbEntity
8
0
100
AcDbSpline
70
0
71
2
72
6
73
3
74
0
42
0.000000001
43
0.0000000001
44
0.0000000001
40
0
40
0
40
0
40
1
40
1
40
1
10
223.76066208267213
20
57.01909899711606
30
0
10
224.16993141555787
20
56.56207323074338
30
0
10
224.76338386917115
20
56.56207323074338
30
0
0
SPLINE
5
557
100
AcDbEntity
8
0
100
AcDbSpline
70
0
71
2
72
6
73
3
74
0
42
0.000000001
43
0.0000000001
44
0.0000000001
40
0
40
0
40
0
40
1
40
1
40
1
10
224.76338386917115
20
56.56207323074338
30
0
10
225.30909538650513
20
56.56207323074338
30
0
10
225.67744255447388
20
56.978172063827486
30
0
0
SPLINE
5
558
100
AcDbEntity
8
0
100
AcDbSpline
70
0
71
2
72
6
73
3
74
0
42
0.000000001
43
0.0000000001
44
0.0000000001
40
0
40
0
40
0
40
1
40
1
40
1
10
225.67744255447388
20
56.978172063827486
30
0
10
226.04578972244263
20
57.394269704818697
30
0
10
226.04578972244263
20
58.219645023345919
30
0
0
SPLINE
5
559
100
AcDbEntity
8
0
100
AcDbSpline
70
0
71
2
72
6
73
3
74
0
42
0.000000001
43
0.0000000001
44
0.0000000001
40
0
40
0
40
0
40
1
40
1
40
1
10
226.04578972244263
20
58.219645023345919
30
0
10
226.04578972244263
20
59.065483808517428
30
0
10
225.66379547500611
20
59.508867263793917
30
0
0
SPLINE
5
560
100
AcDbEntity
8
0
100
AcDbSpline
70
0
71
2
72
6
73
3
74
0
42
0.000000001
43
0.0000000001
44
0.0000000001
40
0
40
0
40
0
40
1
40
1
40
1
10
225.66379547500611
20
59.508867263793917
30
0
10
225.28180122756959
20
59.952250719070406
30
0
10
224.71564293289185
20
59.952250719070406
30
0
0
SPLINE
5
561
100
AcDbEntity
8
0
100
AcDbSpline
70
0
71
2
72
6
73
3
74
0
42
0.000000001
43
0.0000000001
44
0.0000000001
40
0
40
0
40
0
40
1
40
1
40
1
10
224.71564293289185
20
59.952250719070406
30
0
10
224.13582802200318
20
59.952250719070406
30
0
10
223.74019623184205
20
59.522509574890108
30
0
0
SPLINE
5
562
100
AcDbEntity
8
0
100
AcDbSpline
70
0
71
2
72
6
73
3
74
0
42
0.000000001
43
0.0000000001
44
0.0000000001
40
0
40
0
40
0
40
1
40
1
40
1
10
223.74019623184205
20
59.522509574890108
30
0
10
223.35138321304322
20
59.092769622802706
30
0
10
223.35138321304322
20
58.294678926467867
30
0
0
LINE
5
563
100
AcDbEntity
8
0
100
AcDbLine
10
183.52873802566529
20
45.300135612487765
30
0
11
186.61195755386353
21
45.300135612487765
31
0
0
LINE
5
564
100
AcDbEntity
8
0
100
AcDbLine
10
186.61195755386353
20
45.300135612487765
30
0
11
186.61195755386353
21
39.338335990905733
31
0
0
SPLINE
5
565
100
AcDbEntity
8
0
100
AcDbSpline
70
0
71
2
72
6
73
3
74
0
42
0.000000001
43
0.0000000001
44
0.0000000001
40
0
40
0
40
0
40
1
40
1
40
1
10
186.61195755386353
20
39.338335990905733
30
0
10
186.61195755386353
20
38.451569080352755
30
0
10
186.33228779220582
20
37.660298347473116
30
0
0
SPLINE
5
566
100
AcDbEntity
8
0
100
AcDbSpline
70
0
71
2
72
6
73
3
74
0
42
0.000000001
43
0.0000000001
44
0.0000000001
40
0
40
0
40
0
40
1
40
1
40
1
10
186.33228779220582
20
37.660298347473116
30
0
10
186.05943680191041
20
36.875851154327364
30
0
10
185.46598434829713
20
36.282401084899874
30
0
0
SPLINE
5
567
100
AcDbEntity
8
0
100
AcDbSpline
70
0
71
2
72
6
73
3
74
0
42
0.000000001
43
0.0000000001
44
0.0000000001
40
0
40
0
40
0
40
1
40
1
40
1
10
185.46598434829713
20
36.282401084899874
30
0
10
184.87935543441773
20
35.695769786834688
30
0
10
184.23133373641969
20
35.457024574279757
30
0
0
SPLINE
5
568
100
AcDbEntity
8
0
100
AcDbSpline
70
0
71
2
72
6
73
3
74
0
42
0.000000001
43
0.0000000001
44
0.0000000001
40
0
40
0
40
0
40
1
40
1
40
1
10
184.23133373641969
20
35.457024574279757
30
0
10
183.33092213058472
20
35.122783184051485
30
0
10
182.0689868965149
20
35.122783184051485
30
0
0
SPLINE
5
569
100
AcDbEntity
8
0
100
AcDbSpline
70
0
71
2
72
6
73
3
74
0
42
0.000000001
43
0.0000000001
44
0.0000000001
40
0
40
0
40
0
40
1
40
1
40
1
10
182.0689868965149
20
35.122783184051485
30
0
10
181.33910656356812
20
35.122783184051485
30
0
10
180.47280311965943
20
35.225100517272921
30
0
0
SPLINE
5
570
100
AcDbEntity
8
0
100
AcDbSpline
70
0
71
2
72
6
73
3
74
0
42
0.000000001
43
0.0000000001
44
0.0000000001
40
0
40
0
40
0
40
1
40
1
40
1
10
180.47280311965943
20
35.225100517272921
30
0
10
179.61332321548463
20
35.327420234680147
30
0
10
179.03351545715333
20
35.627558231353731
30
0
0
SPLINE
5
571
100
AcDbEntity
8
0
100
AcDbSpline
70
0
71
2
72
6
73
3
74
0
42
0.000000001
43
0.0000000001
44
0.0000000001
40
0
40
0
40
0
40
1
40
1
40
1
10
179.03351545715333
20
35.627558231353731
30
0
10
178.45370531463624
20
35.93451499938962
30
0
10
177.96939373397828
20
36.493859291076632
30
0
0
SPLINE
5
572
100
AcDbEntity
8
0
100
AcDbSpline
70
0
71
2
72
6
73
3
74
0
42
0.000000001
43
0.0000000001
44
0.0000000001
40
0
40
0
40
0
40
1
40
1
40
1
10
177.96939373397828
20
36.493859291076632
30
0
10
177.49190569305421
20
37.053205966949434
30
0
10
177.31455088043214
20
37.646656036376925
30
0
0
SPLINE
5
573
100
AcDbEntity
8
0
100
AcDbSpline
70
0
71
2
72
6
73
3
74
0
42
0.000000001
43
0.0000000001
44
0.0000000001
40
0
40
0
40
0
40
1
40
1
40
1
10
177.31455088043214
20
37.646656036376925
30
0
10
177.02805757904054
20
38.601636886596651
30
0
10
177.02805757904054
20
39.338335990905733
30
0
0
LINE
5
574
100
AcDbEntity
8
0
100
AcDbLine
10
177.02805757904054
20
39.338335990905733
30
0
11
177.02805757904054
21
45.300135612487765
31
0
0
LINE
5
575
100
AcDbEntity
8
0
100
AcDbLine
10
177.02805757904054
20
45.300135612487765
30
0
11
180.11127472305299
21
45.300135612487765
31
0
0
LINE
5
576
100
AcDbEntity
8
0
100
AcDbLine
10
180.11127472305299
20
45.300135612487765
30
0
11
180.11127472305299
21
39.195089340209933
31
0
0
SPLINE
5
577
100
AcDbEntity
8
0
100
AcDbSpline
70
0
71
2
72
6
73
3
74
0
42
0.000000001
43
0.0000000001
44
0.0000000001
40
0
40
0
40
0
40
1
40
1
40
1
10
180.11127472305299
20
39.195089340209933
30
0
10
180.11127472305299
20
38.376533985137911
30
0
10
180.56148052597047
20
37.912685871124239
30
0
0
SPLINE
5
578
100
AcDbEntity
8
0
100
AcDbSpline
70
0
71
2
72
6
73
3
74
0
42
0.000000001
43
0.0000000001
44
0.0000000001
40
0
40
0
40
0
40
1
40
1
40
1
10
180.56148052597047
20
37.912685871124239
30
0
10
181.01850510025025
20
37.455661296844454
30
0
10
181.82342052841187
20
37.455661296844454
30
0
0
SPLINE
5
579
100
AcDbEntity
8
0
100
AcDbSpline
70
0
71
2
72
6
73
3
74
0
42
0.000000001
43
0.0000000001
44
0.0000000001
40
0
40
0
40
0
40
1
40
1
40
1
10
181.82342052841187
20
37.455661296844454
30
0
10
182.62150764846803
20
37.455661296844454
30
0
10
183.07171345138551
20
37.905864715576143
30
0
0
SPLINE
5
580
100
AcDbEntity
8
0
100
AcDbSpline
70
0
71
2
72
6
73
3
74
0
42
0.000000001
43
0.0000000001
44
0.0000000001
40
0
40
0
40
0
40
1
40
1
40
1
10
183.07171345138551
20
37.905864715576143
30
0
10
183.52873802566529
20
38.36289167404172
30
0
10
183.52873802566529
20
39.195089340209933
30
0
0
LINE
5
581
100
AcDbEntity
8
0
100
AcDbLine
10
183.52873802566529
20
39.195089340209933
30
0
11
183.52873802566529
21
45.300135612487765
31
0
0
SPLINE
5
582
100
AcDbEntity
8
0
100
AcDbSpline
70
0
71
2
72
6
73
3
74
0
42
0.000000001
43
0.0000000001
44
0.0000000001
40
0
40
0
40
0
40
1
40
1
40
1
10
188.13310623550416
20
38.901772499084444
30
0
10
188.13310623550416
20
40.559344291686983
30
0
10
189.25179481887818
20
41.630284786224337
30
0
0
SPLINE
5
583
100
AcDbEntity
8
0
100
AcDbSpline
70
0
71
2
72
6
73
3
74
0
42
0.000000001
43
0.0000000001
44
0.0000000001
40
0
40
0
40
0
40
1
40
1
40
1
10
189.25179481887818
20
41.630284786224337
30
0
10
190.37048817062379
20
42.708048820495577
30
0
10
192.27362633132935
20
42.708048820495577
30
0
0
SPLINE
5
584
100
AcDbEntity
8
0
100
AcDbSpline
70
0
71
2
72
6
73
3
74
0
42
0.000000001
43
0.0000000001
44
0.0000000001
40
0
40
0
40
0
40
1
40
1
40
1
10
192.27362633132935
20
42.708048820495577
30
0
10
194.44961548233033
20
42.708048820495577
30
0
10
195.56148529434205
20
41.446111202239962
30
0
0
SPLINE
5
585
100
AcDbEntity
8
0
100
AcDbSpline
70
0
71
2
72
6
73
3
74
0
42
0.000000001
43
0.0000000001
44
0.0000000001
40
0
40
0
40
0
40
1
40
1
40
1
10
195.56148529434205
20
41.446111202239962
30
0
10
196.45506859207154
20
40.429739952087374
30
0
10
196.45506859207154
20
38.942699432373018
30
0
0
SPLINE
5
586
100
AcDbEntity
8
0
100
AcDbSpline
70
0
71
2
72
6
73
3
74
0
42
0.000000001
43
0.0000000001
44
0.0000000001
40
0
40
0
40
0
40
1
40
1
40
1
10
196.45506859207154
20
38.942699432373018
30
0
10
196.45506859207154
20
37.271485328674288
30
0
10
195.34319878005982
20
36.200544834136934
30
0
0
SPLINE
5
587
100
AcDbEntity
8
0
100
AcDbSpline
70
0
71
2
72
6
73
3
74
0
42
0.000000001
43
0.0000000001
44
0.0000000001
40
0
40
0
40
0
40
1
40
1
40
1
10
195.34319878005982
20
36.200544834136934
30
0
10
194.23815727615357
20
35.136425495147677
30
0
10
192.28044510269166
20
35.136425495147677
30
0
0
SPLINE
5
588
100
AcDbEntity
8
0
100
AcDbSpline
70
0
71
2
72
6
73
3
74
0
42
0.000000001
43
0.0000000001
44
0.0000000001
40
0
40
0
40
0
40
1
40
1
40
1
10
192.28044510269166
20
35.136425495147677
30
0
10
190.53420067214967
20
35.136425495147677
30
0
10
189.45643425369263
20
36.023192405700655
30
0
0
SPLINE
5
589
100
AcDbEntity
8
0
100
AcDbSpline
70
0
71
2
72
6
73
3
74
0
42
0.000000001
43
0.0000000001
44
0.0000000001
40
0
40
0
40
0
40
1
40
1
40
1
10
189.45643425369263
20
36.023192405700655
30
0
10
188.13310623550416
20
37.121417522430392
30
0
10
188.13310623550416
20
38.901772499084444
30
0
0
SPLINE
5
590
100
AcDbEntity
8
0
100
AcDbSpline
70
0
71
2
72
6
73
3
74
0
42
0.000000001
43
0.0000000001
44
0.0000000001
40
0
40
0
40
0
40
1
40
1
40
1
10
190.91619015121461
20
38.90859365463254
30
0
10
190.91619015121461
20
37.939972877502413
30
0
10
191.30500317001344
20
37.476124763488741
30
0
0
SPLINE
5
591
100
AcDbEntity
8
0
100
AcDbSpline
70
0
71
2
72
6
73
3
74
0
42
0.000000001
43
0.0000000001
44
0.0000000001
40
0
40
0
40
0
40
1
40
1
40
1
10
191.30500317001344
20
37.476124763488741
30
0
10
191.70063972854615
20
37.012276649475069
30
0
10
192.29408741378785
20
37.012276649475069
30
0
0
SPLINE
5
592
100
AcDbEntity
8
0
100
AcDbSpline
70
0
71
2
72
6
73
3
74
0
42
0.000000001
43
0.0000000001
44
0.0000000001
40
0
40
0
40
0
40
1
40
1
40
1
10
192.29408741378785
20
37.012276649475069
30
0
10
192.89436340713502
20
37.012276649475069
30
0
10
193.27635288619996
20
37.469303607940645
30
0
0
SPLINE
5
593
100
AcDbEntity
8
0
100
AcDbSpline
70
0
71
2
72
6
73
3
74
0
42
0.000000001
43
0.0000000001
44
0.0000000001
40
0
40
0
40
0
40
1
40
1
40
1
10
193.27635288619996
20
37.469303607940645
30
0
10
193.66516590499879
20
37.926330566406222
30
0
10
193.66516590499879
20
38.935878276824923
30
0
0
SPLINE
5
594
100
AcDbEntity
8
0
100
AcDbSpline
70
0
71
2
72
6
73
3
74
0
42
0.000000001
43
0.0000000001
44
0.0000000001
40
0
40
0
40
0
40
1
40
1
40
1
10
193.66516590499879
20
38.935878276824923
30
0
10
193.66516590499879
20
39.877216815948458
30
0
10
193.27635288619996
20
40.334241390228243
30
0
0
SPLINE
5
595
100
AcDbEntity
8
0
100
AcDbSpline
70
0
71
2
72
6
73
3
74
0
42
0.000000001
43
0.0000000001
44
0.0000000001
40
0
40
0
40
0
40
1
40
1
40
1
10
193.27635288619996
20
40.334241390228243
30
0
10
192.88753986740113
20
40.798089504241915
30
0
10
192.31455326461793
20
40.798089504241915
30
0
0
SPLINE
5
596
100
AcDbEntity
8
0
100
AcDbSpline
70
0
71
2
72
6
73
3
74
0
42
0.000000001
43
0.0000000001
44
0.0000000001
40
0
40
0
40
0
40
1
40
1
40
1
10
192.31455326461793
20
40.798089504241915
30
0
10
191.70745849990845
20
40.798089504241915
30
0
10
191.31182670974732
20
40.327420234680147
30
0
0
SPLINE
5
597
100
AcDbEntity
8
0
100
AcDbSpline
70
0
71
2
72
6
73
3
74
0
42
0.000000001
43
0.0000000001
44
0.0000000001
40
0
40
0
40
0
40
1
40
1
40
1
10
191.31182670974732
20
40.327420234680147
30
0
10
190.91619015121461
20
39.863574504852267
30
0
10
190.91619015121461
20
38.90859365463254
30
0
0
LINE
5
598
100
AcDbEntity
8
0
100
AcDbLine
10
200.88208198928834
20
42.544336318969698
30
0
11
202.20541000747681
21
42.544336318969698
31
0
0
LINE
5
599
100
AcDbEntity
8
0
100
AcDbLine
10
202.20541000747681
20
42.544336318969698
30
0
11
202.20541000747681
21
40.511596202850313
31
0
0
LINE
5
600
100
AcDbEntity
8
0
100
AcDbLine
10
202.20541000747681
20
40.511596202850313
30
0
11
200.88208198928834
21
40.511596202850313
31
0
0
LINE
5
601
100
AcDbEntity
8
0
100
AcDbLine
10
200.88208198928834
20
40.511596202850313
30
0
11
200.88208198928834
21
35.300135612487765
31
0
0
LINE
5
602
100
AcDbEntity
8
0
100
AcDbLine
10
200.88208198928834
20
35.300135612487765
30
0
11
198.09900284194947
21
35.300135612487765
31
0
0
LINE
5
603
100
AcDbEntity
8
0
100
AcDbLine
10
198.09900284194947
20
35.300135612487765
30
0
11
198.09900284194947
21
40.511596202850313
31
0
0
LINE
5
604
100
AcDbEntity
8
0
100
AcDbLine
10
198.09900284194947
20
40.511596202850313
30
0
11
197.0621681251526
21
40.511596202850313
31
0
0
LINE
5
605
100
AcDbEntity
8
0
100
AcDbLine
10
197.0621681251526
20
40.511596202850313
30
0
11
197.0621681251526
21
42.544336318969698
31
0
0
LINE
5
606
100
AcDbEntity
8
0
100
AcDbLine
10
197.0621681251526
20
42.544336318969698
30
0
11
198.09900284194947
21
42.544336318969698
31
0
0
LINE
5
607
100
AcDbEntity
8
0
100
AcDbLine
10
198.09900284194947
20
42.544336318969698
30
0
11
198.09900284194947
21
42.871758937835665
31
0
0
SPLINE
5
608
100
AcDbEntity
8
0
100
AcDbSpline
70
0
71
2
72
6
73
3
74
0
42
0.000000001
43
0.0000000001
44
0.0000000001
40
0
40
0
40
0
40
1
40
1
40
1
10
198.09900284194947
20
42.871758937835665
30
0
10
198.09900284194947
20
43.31514358520505
30
0
10
198.19449425125123
20
43.847203254699679
30
0
0
SPLINE
5
609
100
AcDbEntity
8
0
100
AcDbSpline
70
0
71
2
72
6
73
3
74
0
42
0.000000001
43
0.0000000001
44
0.0000000001
40
0
40
0
40
0
40
1
40
1
40
1
10
198.19449425125123
20
43.847203254699679
30
0
10
198.28999519729615
20
44.379262924194308
30
0
10
198.54920387649537
20
44.71350669860837
30
0
0
SPLINE
5
610
100
AcDbEntity
8
0
100
AcDbSpline
70
0
71
2
72
6
73
3
74
0
42
0.000000001
43
0.0000000001
44
0.0000000001
40
0
40
0
40
0
40
1
40
1
40
1
10
198.54920387649537
20
44.71350669860837
30
0
10
198.81523132705689
20
45.054569244384737
30
0
10
199.28590298080445
20
45.25920867919919
30
0
0
SPLINE
5
611
100
AcDbEntity
8
0
100
AcDbSpline
70
0
71
2
72
6
73
3
74
0
42
0.000000001
43
0.0000000001
44
0.0000000001
40
0
40
0
40
0
40
1
40
1
40
1
10
199.28590298080445
20
45.25920867919919
30
0
10
199.76339340591431
20
45.470666885375948
30
0
10
200.67744255447388
20
45.470666885375948
30
0
0
SPLINE
5
612
100
AcDbEntity
8
0
100
AcDbSpline
70
0
71
2
72
6
73
3
74
0
42
0.000000001
43
0.0000000001
44
0.0000000001
40
0
40
0
40
0
40
1
40
1
40
1
10
200.67744255447388
20
45.470666885375948
30
0
10
201.40732288742066
20
45.470666885375948
30
0
10
202.7988624610901
20
45.300135612487765
30
0
0
LINE
5
613
100
AcDbEntity
8
0
100
AcDbLine
10
202.7988624610901
20
45.300135612487765
30
0
11
202.49190330886842
21
43.622100353240938
31
0
0
SPLINE
5
614
100
AcDbEntity
8
0
100
AcDbSpline
70
0
71
2
72
6
73
3
74
0
42
0.000000001
43
0.0000000001
44
0.0000000001
40
0
40
0
40
0
40
1
40
1
40
1
10
202.49190330886842
20
43.622100353240938
30
0
10
201.99395180130006
20
43.703956604003878
30
0
10
201.68699264907838
20
43.703956604003878
30
0
0
SPLINE
5
615
100
AcDbEntity
8
0
100
AcDbSpline
70
0
71
2
72
6
73
3
74
0
42
0.000000001
43
0.0000000001
44
0.0000000001
40
0
40
0
40
0
40
1
40
1
40
1
10
201.68699264907838
20
43.703956604003878
30
0
10
201.31182670974732
20
43.703956604003878
30
0
10
201.14811420822144
20
43.574352264404268
30
0
0
SPLINE
5
616
100
AcDbEntity
8
0
100
AcDbSpline
70
0
71
2
72
6
73
3
74
0
42
0.000000001
43
0.0000000001
44
0.0000000001
40
0
40
0
40
0
40
1
40
1
40
1
10
201.14811420822144
20
43.574352264404268
30
0
10
200.98440170669556
20
43.451566696166964
30
0
10
200.91619015121461
20
43.178715705871554
30
0
0
SPLINE
5
617
100
AcDbEntity
8
0
100
AcDbSpline
70
0
71
2
72
6
73
3
74
0
42
0.000000001
43
0.0000000001
44
0.0000000001
40
0
40
0
40
0
40
1
40
1
40
1
10
200.91619015121461
20
43.178715705871554
30
0
10
200.88208198928834
20
43.028647899627657
30
0
10
200.88208198928834
20
42.544336318969698
30
0
0
LINE
5
618
100
AcDbEntity
8
0
100
AcDbLine
10
209.56557274246217
20
36.950886249542208
30
0
11
206.04578972244263
21
36.950886249542208
31
0
0
LINE
5
619
100
AcDbEntity
8
0
100
AcDbLine
10
206.04578972244263
20
36.950886249542208
30
0
11
205.56148052597047
21
35.300135612487765
31
0
0
LINE
5
620
100
AcDbEntity
8
0
100
AcDbLine
10
205.56148052597047
20
35.300135612487765
30
0
11
202.40323067092896
21
35.300135612487765
31
0
0
LINE
5
621
100
AcDbEntity
8
0
100
AcDbLine
10
202.40323067092896
20
35.300135612487765
30
0
11
206.16175651931763
21
45.300135612487765
31
0
0
LINE
5
622
100
AcDbEntity
8
0
100
AcDbLine
10
206.16175651931763
20
45.300135612487765
30
0
11
209.53146934890748
21
45.300135612487765
31
0
0
LINE
5
623
100
AcDbEntity
8
0
100
AcDbLine
10
209.53146934890748
20
45.300135612487765
30
0
11
213.28999519729615
21
35.300135612487765
31
0
0
LINE
5
624
100
AcDbEntity
8
0
100
AcDbLine
10
213.28999519729615
20
35.300135612487765
30
0
11
210.05670547866822
21
35.300135612487765
31
0
0
LINE
5
625
100
AcDbEntity
8
0
100
AcDbLine
10
210.05670547866822
20
35.300135612487765
30
0
11
209.56557274246217
21
36.950886249542208
31
0
0
LINE
5
626
100
AcDbEntity
8
0
100
AcDbLine
10
208.91755104446412
20
39.113233089446993
30
0
11
207.81250477218629
21
42.708048820495577
31
0
0
LINE
5
627
100
AcDbEntity
8
0
100
AcDbLine
10
207.81250477218629
20
42.708048820495577
30
0
11
206.71427727127076
21
39.113233089446993
31
0
0
LINE
5
628
100
AcDbEntity
8
0
100
AcDbLine
10
206.71427727127076
20
39.113233089446993
30
0
11
208.91755104446412
21
39.113233089446993
31
0
0
ENDSEC
0
SECTION
2
OBJECTS
0
DICTIONARY
5
C
100
AcDbDictionary
3
ACAD_GROUP
350
D
3
ACAD_MLINESTYLE
350
17
0
DICTIONARY
5
D
100
AcDbDictionary
0
DICTIONARY
5
1A
330
C
100
AcDbDictionary
0
DICTIONARY
5
17
100
AcDbDictionary
0
ENDSEC
0
EOF
